<?xml version="1.0" encoding="utf-8"?>
<!-- Generator: Adobe Illustrator 25.0.0, SVG Export Plug-In . SVG Version: 6.00 Build 0)  -->
<svg version="1.1" id="Layer_1" xmlns="http://www.w3.org/2000/svg" xmlns:xlink="http://www.w3.org/1999/xlink" x="0px" y="0px"
	 viewBox="0 0 434 403" style="enable-background:new 0 0 434 403;" xml:space="preserve">
<style type="text/css">
	.st0{fill:#458FF6;}
	.st1{opacity:0.7;fill:#FFFFFF;enable-background:new    ;}
	.st2{fill:#FFFFFF;}
	.st3{fill:none;stroke:#263238;stroke-miterlimit:10;}
	.st4{fill:#458FF6;stroke:#458FF6;stroke-miterlimit:10;}
	.st5{clip-path:url(#SVGID_2_);}
	.st6{opacity:0.15;stroke:#263238;stroke-linecap:round;stroke-linejoin:round;enable-background:new    ;}
	.st7{fill:none;stroke:#263238;stroke-linecap:round;stroke-linejoin:round;}
	.st8{clip-path:url(#SVGID_4_);}
	.st9{opacity:0.5;fill:#FFFFFF;enable-background:new    ;}
	.st10{fill:#FFFFFF;stroke:#263238;stroke-linecap:round;stroke-linejoin:round;}
	.st11{fill:#263238;stroke:#263238;stroke-linecap:round;stroke-linejoin:round;}
	.st12{fill:none;stroke:#FFFFFF;stroke-linecap:round;stroke-linejoin:round;}
	.st13{clip-path:url(#SVGID_6_);}
	.st14{clip-path:url(#SVGID_8_);}
	.st15{opacity:0.15;}
	.st16{clip-path:url(#SVGID_10_);}
	.st17{opacity:0.5;enable-background:new    ;}
	.st18{opacity:0.22;enable-background:new    ;}
	.st19{clip-path:url(#SVGID_12_);}
	.st20{opacity:0.15;enable-background:new    ;}
	.st21{clip-path:url(#SVGID_14_);}
	.st22{clip-path:url(#SVGID_16_);}
	.st23{clip-path:url(#SVGID_18_);}
	.st24{clip-path:url(#SVGID_20_);}
	.st25{clip-path:url(#SVGID_22_);}
	.st26{fill:#7D7D7D;}
	.st27{clip-path:url(#SVGID_24_);}
</style>
<g id="freepik--background-simple--inject-37">
	<path class="st0" d="M12.4,221.3c0,0,2.3,68.4,58.6,109.3s134.4,37.2,197.6,36s111.6-41.8,118.9-97.5s-41.1-67.6-67.4-127.9
		s-24-81.1-79.5-114.8S98.6,24.1,53.2,94S12.4,221.3,12.4,221.3z"/>
	<path class="st1" d="M12.4,221.3c0,0,2.3,68.4,58.6,109.3s134.4,37.2,197.6,36s111.6-41.8,118.9-97.5s-41.1-67.6-67.4-127.9
		s-24-81.1-79.5-114.8S98.6,24.1,53.2,94S12.4,221.3,12.4,221.3z"/>
</g>
<g id="freepik--Plants--inject-37">
	<path class="st0" d="M335,106.1c-1.1,1.3-1.8,2.8-2.1,4.5l-4.3,2.4v-11.4l0.1,0.1l6.9-5c2.5,0.4,5,0,7.2-1.1
		c3.5-1.9,6.1-8.4,6.1-8.4s-8.4-0.9-11.2,2.6c-1.6,1.8-2.4,4.2-2.3,6.6l-6.7,4.9v-8.4c2.5-1.2,4.4-3.4,5.1-6.1
		c1.2-4.7-5.3-14.1-5.3-14.1s-6.8,9.6-5.4,14.4c0.6,2.7,2.6,4.8,5.1,5.7V111l-4.8-4c0.2-2.6-0.7-5.1-2.5-7
		c-3.2-3.6-11.9-3.4-11.9-3.4s3.6,7.3,6.8,9.7c2.7,2.1,6.5,1.3,7.4,1l5.1,4.2v5.5h-7.5l3.1,19.2h9.2l3.1-19.2h-7.4v-3.7l4.7-2.6
		c2.5,0.7,5.1,0.5,7.4-0.6c2.7-1.5,5-3.5,6.9-5.9C347.6,104.3,338.5,102,335,106.1z"/>
</g>
<g id="freepik--Room--inject-37">
	<rect x="177" y="67.8" class="st2" width="101.3" height="8.2"/>
	<rect x="177" y="80.1" class="st2" width="101.3" height="8.2"/>
	<rect x="177" y="92.5" class="st2" width="101.3" height="8.2"/>
	<rect x="177" y="104.8" class="st2" width="101.3" height="8.2"/>
	<rect x="177" y="117.2" class="st2" width="101.3" height="8.2"/>
	<rect x="177" y="129.5" class="st2" width="101.3" height="8.2"/>
	<rect x="177" y="141.8" class="st2" width="101.3" height="8.2"/>
	<rect x="177" y="154.2" class="st2" width="101.3" height="8.2"/>
	<rect x="177" y="166.5" class="st2" width="101.3" height="8.2"/>
	<rect x="177" y="178.9" class="st2" width="101.3" height="8.2"/>
	<rect x="177" y="191.2" class="st2" width="101.3" height="8.2"/>
	<rect x="177" y="203.5" class="st2" width="101.3" height="8.2"/>
	<rect x="177" y="215.9" class="st2" width="101.3" height="8.2"/>
	<rect x="69" y="67.8" class="st2" width="101.3" height="8.2"/>
	<rect x="69" y="80.1" class="st2" width="101.3" height="8.2"/>
	<rect x="69" y="92.5" class="st2" width="101.3" height="8.2"/>
	<rect x="69" y="104.8" class="st2" width="101.3" height="8.2"/>
	<rect x="69" y="117.2" class="st2" width="101.3" height="8.2"/>
	<rect x="69" y="129.5" class="st2" width="101.3" height="8.2"/>
	<rect x="69" y="141.8" class="st2" width="101.3" height="8.2"/>
	<rect x="69" y="154.2" class="st2" width="101.3" height="8.2"/>
	<rect x="69" y="166.5" class="st2" width="101.3" height="8.2"/>
	<rect x="69" y="178.9" class="st2" width="101.3" height="8.2"/>
	<rect x="69" y="191.2" class="st2" width="101.3" height="8.2"/>
	<rect x="69" y="203.5" class="st2" width="101.3" height="8.2"/>
	<rect x="69" y="215.9" class="st2" width="101.3" height="8.2"/>
	<rect x="64" y="59.7" class="st3" width="219.3" height="6"/>
	<rect x="54.1" y="263.3" class="st3" width="10" height="122.7"/>
	<rect x="284.8" y="263.3" class="st3" width="10" height="122.7"/>
	<path class="st4" d="M67.5,233.3H282c8,0,14.5,6.5,14.5,14.5v0v21.8l0,0H53l0,0v-21.8C53,239.8,59.5,233.3,67.5,233.3
		C67.5,233.3,67.5,233.3,67.5,233.3z"/>
	<line class="st3" x1="73.3" y1="259.1" x2="289.5" y2="259.1"/>
	<line class="st3" x1="56.6" y1="259.1" x2="62.6" y2="259.1"/>
	<rect x="36.1" y="322.7" class="st3" width="10" height="63.3"/>
	<rect x="103.5" y="322.7" class="st3" width="10" height="63.3"/>
	<path class="st4" d="M49.5,292.7h51.1c8,0,14.5,6.5,14.5,14.5l0,0v21.8l0,0H35l0,0v-21.8C35,299.2,41.5,292.7,49.5,292.7z"/>
	<rect x="322.8" y="146.3" class="st3" width="46.7" height="222"/>
	<polyline class="st3" points="394.8,146.3 374.8,146.3 374.8,368.3 394.8,368.3 	"/>
	<polyline class="st3" points="315.5,385.7 315.5,136.3 378.1,136.3 	"/>
	<rect x="360.1" y="244.3" class="st3" width="5.3" height="20.7"/>
	<rect x="378.8" y="244.3" class="st3" width="5.3" height="20.7"/>
</g>
<g id="freepik--Character--inject-37">
	<path class="st2" d="M253.2,112.8c0,0,0.2,5.3-1,8.4s-0.6,9.7-0.2,10.9s-1.2,5.1-1.2,5.1l3.7,5.1c0,0,4.3-6.4,6.4-9.9
		s5.3-6.6,4.3-8.6s-4.1-5.8-4.3-6.8s-2-1.9-2-1.9l-3.1,7c0,0-0.6-5.1-0.6-7.4S253.8,111.1,253.2,112.8z"/>
	<g>
		<defs>
			<path id="SVGID_1_" d="M253.2,112.8c0,0,0.2,5.3-1,8.4s-0.6,9.7-0.2,10.9s-1.2,5.1-1.2,5.1l3.7,5.1c0,0,4.3-6.4,6.4-9.9
				s5.3-6.6,4.3-8.6s-4.1-5.8-4.3-6.8s-2-1.9-2-1.9l-3.1,7c0,0-0.6-5.1-0.6-7.4S253.8,111.1,253.2,112.8z"/>
		</defs>
		<clipPath id="SVGID_2_">
			<use xlink:href="#SVGID_1_"  style="overflow:visible;"/>
		</clipPath>
		<g class="st5">
			<path class="st6" d="M253.2,112.8c0,0,0.2,5.3-1,8.4s-0.6,9.7-0.2,10.9s-1.2,5.1-1.2,5.1l3.7,5.1c0,0,4.3-6.4,6.4-9.9
				s5.3-6.6,4.3-8.6s-4.1-5.8-4.3-6.8s-2-1.9-2-1.9l-3.1,7c0,0-0.6-5.1-0.6-7.4S253.8,111.1,253.2,112.8z"/>
		</g>
	</g>
	<path class="st7" d="M253.2,112.8c0,0,0.2,5.3-1,8.4s-0.6,9.7-0.2,10.9s-1.2,5.1-1.2,5.1l3.7,5.1c0,0,4.3-6.4,6.4-9.9
		s5.3-6.6,4.3-8.6s-4.1-5.8-4.3-6.8s-2-1.9-2-1.9l-3.1,7c0,0-0.6-5.1-0.6-7.4S253.8,111.1,253.2,112.8z"/>
	<path class="st2" d="M250.1,136l7.8,7.8c0,0-24.5,40.7-27.1,41.9s-12.1-6.6-12.1-6.6l-6.4-35.4c0,0,8.6,4.6,11.5,9.5
		s4.9,5.3,4.9,5.3L250.1,136z"/>
	<g>
		<defs>
			<path id="SVGID_3_" d="M250.1,136l7.8,7.8c0,0-24.5,40.7-27.1,41.9s-12.1-6.6-12.1-6.6l-6.4-35.4c0,0,8.6,4.6,11.5,9.5
				s4.9,5.3,4.9,5.3L250.1,136z"/>
		</defs>
		<clipPath id="SVGID_4_">
			<use xlink:href="#SVGID_3_"  style="overflow:visible;"/>
		</clipPath>
		<g class="st8">
			<path class="st0" d="M227.2,169.4c-0.8,0-1.5-3.4-1.5-5.2s-4.1,1.6-4.1,1.6l-4.6-6.2l-1.5,0.7l3.4,18.7c0,0,9.5,7.8,12.1,6.6
				s24.4-37.5,26.8-41.5C251.7,149.2,227.9,169.4,227.2,169.4z"/>
			<path class="st9" d="M227.2,169.4c-0.8,0-1.5-3.4-1.5-5.2s-4.1,1.6-4.1,1.6l-4.6-6.2l-1.5,0.7l3.4,18.7c0,0,9.5,7.8,12.1,6.6
				s24.4-37.5,26.8-41.5C251.7,149.2,227.9,169.4,227.2,169.4z"/>
		</g>
	</g>
	<path class="st7" d="M250.1,136l7.8,7.8c0,0-24.5,40.7-27.1,41.9s-12.1-6.6-12.1-6.6l-6.4-35.4c0,0,8.6,4.6,11.5,9.5
		s4.9,5.3,4.9,5.3L250.1,136z"/>
	<path class="st7" d="M225,171.1c0.5-4.5,3.6-12.8,3.6-12.8s-4.1,5.8-5.4,8.8"/>
	<path class="st10" d="M205.1,370c3.2,2.7,6.8,4.8,10.8,6.2c6.7,2.5,9.7,4,10.7,6.2s0,3.5,0,3.5h-42.7c0,0-2.2-3.5,1.5-10.5
		S205.1,370,205.1,370z"/>
	<path class="st7" d="M206.6,371.5c0,0-3.5,1.5-2.4,2.2s3.9-0.9,3.9-0.9s-3.5,2.6-1.7,2.8s4.4-1.3,4.4-1.3s-2.4,3-1.3,3.3
		s3.9-2,3.9-2"/>
	<line class="st7" x1="183.4" y1="382.9" x2="226.5" y2="382.5"/>
	<path class="st11" d="M221.5,263.2c0,0-5,40.8-5.8,50.5s-7.5,26.8-8.8,31c-1.3,5.3-2.1,10.8-2.5,16.2c0.2,2.4,0.7,4.7,1.2,7
		c0,0,0.5,2.2-4.2,3.2s-13.5,2.5-13.5,2.5s-3.2-1-3-10.5s0.8-27,3-35.2s5.2-21.8,6-24.5s-1-48-1-48l28-0.2L221.5,263.2z"/>
	<path class="st10" d="M185.3,370c3.2,2.7,6.8,4.8,10.8,6.2c6.8,2.5,9.8,4,10.8,6.2s0,3.5,0,3.5h-42.8c0,0-2.2-3.5,1.5-10.5
		S185.3,370,185.3,370z"/>
	<path class="st7" d="M190.4,373.5c0,0-5.4,3-4.6,3.5s6.3-2.2,6.3-2.2s-3.1,3.5-1.3,3.3s3.7-2.4,3.7-2.4s-1.8,3.7-0.4,3.3
		c1.1-0.5,2.1-1.3,2.8-2.2"/>
	<line class="st7" x1="163.5" y1="381.8" x2="206.8" y2="382.5"/>
	<path class="st11" d="M171.1,252.8c0,0,1.5,39,1.2,46.5s-4.2,15.8-4.8,24.8s-4.1,44.4-4.1,48.4s0.2,4.8,0.4,5.5s6.4-0.9,9.9-2.1
		s15.5-2.5,15.5-2.5s-2-3.7-2-6.5s-0.5-7.2,0-8.8s3.5-32.8,5.5-38.5s5.5-24.8,5.8-32s3.2-31.8,3.2-31.8S181.8,256.5,171.1,252.8z"/>
	<path class="st12" d="M202.7,282.5c0.1-1.5,0.2-2.9,0.2-4.2"/>
	<path class="st12" d="M189.3,370.7v-7.6c0-3.8,3.4-22.9,6.4-39.8c2.2-12.6,5.1-25.6,6.4-35.6"/>
	<path class="st2" d="M176.3,130.5c0,0-9.1,8.4-9.9,9s-7.8,12.1-9.7,16.5s-0.2,12.9,1,20s8.8,30.2,8.8,30.2l-1.9,58.2
		c0,0,13.4,5.6,21,7s19.7,0.8,19.7,0.8l2.5-12.6l3.1,12.1c0,0,11.9-1.4,17.3-7.4l-6.6-74.2l-3.7-33.3c0,0-1-8-2.9-11.5
		s-12.5-10.3-19.9-13S176.3,130.5,176.3,130.5z"/>
	<g>
		<defs>
			<path id="SVGID_5_" d="M176.3,130.5c0,0-9.1,8.4-9.9,9s-7.8,12.1-9.7,16.5s-0.2,12.9,1,20s8.8,30.2,8.8,30.2l-1.9,58.2
				c0,0,13.4,5.6,21,7s19.7,0.8,19.7,0.8l2.5-12.6l3.1,12.1c0,0,11.9-1.4,17.3-7.4l-6.6-74.2l-3.7-33.3c0,0-1-8-2.9-11.5
				s-12.5-10.3-19.9-13S176.3,130.5,176.3,130.5z"/>
		</defs>
		<clipPath id="SVGID_6_">
			<use xlink:href="#SVGID_5_"  style="overflow:visible;"/>
		</clipPath>
		<g class="st13">
			<path class="st0" d="M184,181l-19.4-10.3l0.8-7.5c0,0-6.8-1.1-5.2-5.5s7.8-12.7,9.1-15.5s8.3-8,8.3-8l2.8-3.9c-2.4,0-4,0.2-4,0.2
				s-9.1,8.4-9.9,9s-7.8,12.1-9.7,16.5s-0.2,12.9,1,20s8.8,30.2,8.8,30.2l-1.9,58.2c0,0,3.2,1.3,7.3,2.9
				c-0.6-21.3-1.6-61.6-1.2-62.2c0.5-0.8,9.6-13.2,12.1-16s-11.4,0.8-10.6,0.3S184,181,184,181z"/>
			<path class="st9" d="M184,181l-19.4-10.3l0.8-7.5c0,0-6.8-1.1-5.2-5.5s7.8-12.7,9.1-15.5s8.3-8,8.3-8l2.8-3.9c-2.4,0-4,0.2-4,0.2
				s-9.1,8.4-9.9,9s-7.8,12.1-9.7,16.5s-0.2,12.9,1,20s8.8,30.2,8.8,30.2l-1.9,58.2c0,0,3.2,1.3,7.3,2.9
				c-0.6-21.3-1.6-61.6-1.2-62.2c0.5-0.8,9.6-13.2,12.1-16s-11.4,0.8-10.6,0.3S184,181,184,181z"/>
			<path class="st10" d="M202.6,171.8c0,0,6.7,64.3,5.1,87.8"/>
			<polygon class="st7" points="173.1,226.2 193.3,229 193.3,234.2 173.3,231 			"/>
			<polyline class="st7" points="223.8,229.8 217.5,232 216.8,227 221.8,225.2 			"/>
		</g>
	</g>
	<path class="st7" d="M176.3,130.5c0,0-9.1,8.4-9.9,9s-7.8,12.1-9.7,16.5s-0.2,12.9,1,20s8.8,30.2,8.8,30.2l-1.9,58.2
		c0,0,13.4,5.6,21,7s19.7,0.8,19.7,0.8l2.5-12.6l3.1,12.1c0,0,11.9-1.4,17.3-7.4l-6.6-74.2l-3.7-33.3c0,0-1-8-2.9-11.5
		s-12.5-10.3-19.9-13S176.3,130.5,176.3,130.5z"/>
	<path class="st10" d="M175.1,132c0,0,17.3,20.8,20.2,26.3s7.2,12.1,7.2,12.1s0.2-18.5-2.3-27.1s-5.3-10.1-5.3-10.1
		c-2.9-3-7.2-4.3-11.3-3.5C176.3,130.9,175.1,132,175.1,132z"/>
	<path class="st11" d="M202.1,156.1l-4.2-8.7v-7.6l-5.8-6l-0.6,9.7l4.3,4.9l2,14.1c2.4,4.2,4.9,7.9,4.9,7.9S202.7,163.4,202.1,156.1
		z"/>
	<path class="st10" d="M194.6,138.2l5.6,5.1l-4.9-11.7C195.4,131.6,193.2,137.1,194.6,138.2z"/>
	<path class="st2" d="M182.3,87.4c0,0-7.8,3.5-11.1,9.7s1.6,13.8,3.1,15.8c1.1,1.3,2.4,2.6,3.7,3.7l1.6,1.8l0.2,8.8l14.2,12.1
		l3.9-12.5c0,0,6.6-1.4,7.6-3.9s-1.9-18.1-2.7-21.2s-3.1-9.1-3.1-9.1s0.8-2.9-3.7-5.6S182.3,87.4,182.3,87.4z"/>
	<g>
		<defs>
			<path id="SVGID_7_" d="M182.3,87.4c0,0-7.8,3.5-11.1,9.7s1.6,13.8,3.1,15.8c1.1,1.3,2.4,2.6,3.7,3.7l1.6,1.8l0.2,8.8l14.2,12.1
				l3.9-12.5c0,0,6.6-1.4,7.6-3.9s-1.9-18.1-2.7-21.2s-3.1-9.1-3.1-9.1s0.8-2.9-3.7-5.6S182.3,87.4,182.3,87.4z"/>
		</defs>
		<clipPath id="SVGID_8_">
			<use xlink:href="#SVGID_7_"  style="overflow:visible;"/>
		</clipPath>
		<g class="st14">
			<g class="st15">
				<path d="M182.3,87.4c0,0-7.8,3.5-11.1,9.7s1.6,13.8,3.1,15.8c1.1,1.3,2.4,2.6,3.7,3.7l1.6,1.8l0.2,8.8l14.2,12.1l3.9-12.5
					c0,0,6.6-1.4,7.6-3.9s-1.9-18.1-2.7-21.2s-3.1-9.1-3.1-9.1s0.8-2.9-3.7-5.6S182.3,87.4,182.3,87.4z"/>
				<g>
					<defs>
						<path id="SVGID_9_" d="M182.3,87.4c0,0-7.8,3.5-11.1,9.7s1.6,13.8,3.1,15.8c1.1,1.3,2.4,2.6,3.7,3.7l1.6,1.8l0.2,8.8
							l14.2,12.1l3.9-12.5c0,0,6.6-1.4,7.6-3.9s-1.9-18.1-2.7-21.2s-3.1-9.1-3.1-9.1s0.8-2.9-3.7-5.6S182.3,87.4,182.3,87.4z"/>
					</defs>
					<clipPath id="SVGID_10_">
						<use xlink:href="#SVGID_9_"  style="overflow:visible;"/>
					</clipPath>
					<g class="st16">
						<path d="M187.6,119.7c-0.8-3.9,2.3-14-1-20.7c-2.7-5.4-10.4-5-13.5-4.6c-0.7,0.8-1.4,1.8-1.9,2.8c-3.3,6.2,1.6,13.8,3.1,15.8
							c1.1,1.3,2.4,2.6,3.7,3.7l1.6,1.8l0.2,8.8l3.9,3.3c0-1.1,0-2,0-2.5c0-1.7,7.8-1.8,9.8-2.6S188.4,123.6,187.6,119.7z"/>
						<path class="st17" d="M187.6,119.7c-0.8-3.9,2.3-14-1-20.7c-2.7-5.4-10.4-5-13.5-4.6c-0.7,0.8-1.4,1.8-1.9,2.8
							c-3.3,6.2,1.6,13.8,3.1,15.8c1.1,1.3,2.4,2.6,3.7,3.7l1.6,1.8l0.2,8.8l3.9,3.3c0-1.1,0-2,0-2.5c0-1.7,7.8-1.8,9.8-2.6
							S188.4,123.6,187.6,119.7z"/>
					</g>
				</g>
			</g>
			<path class="st18" d="M187.6,119.7c-0.8-3.9,2.3-14-1-20.7c-2.7-5.4-10.4-5-13.5-4.6c-0.7,0.8-1.4,1.8-1.9,2.8
				c-3.3,6.2,1.6,13.8,3.1,15.8c1.1,1.3,2.4,2.6,3.7,3.7l1.6,1.8l0.2,8.8l3.9,3.3c0-1.1,0-2,0-2.5c0-1.7,7.8-1.8,9.8-2.6
				S188.4,123.6,187.6,119.7z"/>
		</g>
	</g>
	<path class="st7" d="M182.3,87.4c0,0-7.8,3.5-11.1,9.7s1.6,13.8,3.1,15.8c1.1,1.3,2.4,2.6,3.7,3.7l1.6,1.8l0.2,8.8l14.2,12.1
		l3.9-12.5c0,0,6.6-1.4,7.6-3.9s-1.9-18.1-2.7-21.2s-3.1-9.1-3.1-9.1s0.8-2.9-3.7-5.6S182.3,87.4,182.3,87.4z"/>
	<path class="st7" d="M184.5,118.8c0,0,0.8,3.1,2.1,3.9c3.1,1.8,6.7,2.7,10.3,2.7"/>
	<path class="st2" d="M202.8,101.6l-1.2,2.1c0,0,4.7,4.3,4.5,5.4s-3.9,2.5-3.9,2.5"/>
	<g>
		<defs>
			<path id="SVGID_11_" d="M202.8,101.6l-1.2,2.1c0,0,4.7,4.3,4.5,5.4s-3.9,2.5-3.9,2.5"/>
		</defs>
		<clipPath id="SVGID_12_">
			<use xlink:href="#SVGID_11_"  style="overflow:visible;"/>
		</clipPath>
		<g class="st19">
			<path class="st20" d="M202.8,101.6l-1.2,2.1c0,0,4.7,4.3,4.5,5.4s-3.9,2.5-3.9,2.5"/>
		</g>
	</g>
	<path class="st7" d="M202.8,101.6l-1.2,2.1c0,0,4.7,4.3,4.5,5.4s-3.9,2.5-3.9,2.5"/>
	<polyline class="st7" points="196.8,105.9 197.1,106.7 194.6,107.7 197.3,107.6 	"/>
	<path class="st7" d="M197.2,103.1c0,0-3.3-0.9-4.6,1.9"/>
	<path class="st7" d="M204,114.5c-1.5,0.4-3,0.7-4.6,0.7"/>
	<path class="st11" d="M188,93.7c5.2-3.1,11.7-1.2,11.7-1.2s0.8-2.9-3.7-5.6s-13.6,0.6-13.6,0.6s-7.8,3.5-11.1,9.7
		s1.6,13.8,3.1,15.8c1.1,1.3,2.4,2.6,3.7,3.7l1.6,1.8v0.7c3.2-0.4,3.7-0.9,3.7-0.9c-0.9,0-1.7-0.3-2.3-1c-1.4-1.2-3.9-3.1-3.3-5.8
		s2.9-2.7,4.1-1.8s1.2,1.2,2.5,0.6s-0.6-4.1-0.6-4.1l2-1.4c1.9-1.4,2.5-2.9,1-4.3S182.7,96.8,188,93.7z"/>
	<polygon class="st10" points="177.9,125.2 175.1,132 190.7,147 194.8,139 	"/>
	<path class="st11" d="M218.7,77.4c0,0,10.1,17.9,11.7,26.5s4.5,19.9,4.5,19.9l25.5-2.9c0,0-3.7-23.7-6-31.7s-2.9-9.7-2.9-9.7
		S223,76.4,218.7,77.4z"/>
	<path class="st2" d="M222.2,137.1c0,0,1-7,1-7.6S223,119,223,119s3.7-8,4.3-8.4s6.8-3.5,7.2-2.1s-1.4,1.9-2,2.5s-3.1,1.8-3.3,2.3
		s-1.4,5.1-1.4,5.1s5.1-3.9,6.4-3.9s2.5,3.1,2.5,3.1s1.8,2.5,1.8,3.9s0.4,2.9-0.6,3.9s-1.4,1.8-2.7,1.8s-3.1,1.6-3.1,2.7
		s0,5.1-1.2,6.2c-1.8,1.5-3.7,2.9-5.6,4.3L222.2,137.1z"/>
	<g>
		<defs>
			<path id="SVGID_13_" d="M222.2,137.1c0,0,1-7,1-7.6S223,119,223,119s3.7-8,4.3-8.4s6.8-3.5,7.2-2.1s-1.4,1.9-2,2.5
				s-3.1,1.8-3.3,2.3s-1.4,5.1-1.4,5.1s5.1-3.9,6.4-3.9s2.5,3.1,2.5,3.1s1.8,2.5,1.8,3.9s0.4,2.9-0.6,3.9s-1.4,1.8-2.7,1.8
				s-3.1,1.6-3.1,2.7s0,5.1-1.2,6.2c-1.8,1.5-3.7,2.9-5.6,4.3L222.2,137.1z"/>
		</defs>
		<clipPath id="SVGID_14_">
			<use xlink:href="#SVGID_13_"  style="overflow:visible;"/>
		</clipPath>
		<g class="st21">
			<path class="st6" d="M222.2,137.1c0,0,1-7,1-7.6S223,119,223,119s3.7-8,4.3-8.4s6.8-3.5,7.2-2.1s-1.4,1.9-2,2.5s-3.1,1.8-3.3,2.3
				s-1.4,5.1-1.4,5.1s5.1-3.9,6.4-3.9s2.5,3.1,2.5,3.1s1.8,2.5,1.8,3.9s0.4,2.9-0.6,3.9s-1.4,1.8-2.7,1.8s-3.1,1.6-3.1,2.7
				s0,5.1-1.2,6.2c-1.8,1.5-3.7,2.9-5.6,4.3L222.2,137.1z"/>
		</g>
	</g>
	<path class="st7" d="M222.2,137.1c0,0,1-7,1-7.6S223,119,223,119s3.7-8,4.3-8.4s6.8-3.5,7.2-2.1s-1.4,1.9-2,2.5s-3.1,1.8-3.3,2.3
		s-1.4,5.1-1.4,5.1s5.1-3.9,6.4-3.9s2.5,3.1,2.5,3.1s1.8,2.5,1.8,3.9s0.4,2.9-0.6,3.9s-1.4,1.8-2.7,1.8s-3.1,1.6-3.1,2.7
		s0,5.1-1.2,6.2c-1.8,1.5-3.7,2.9-5.6,4.3L222.2,137.1z"/>
	<line class="st7" x1="238.6" y1="121.6" x2="232" y2="124.7"/>
	<line class="st7" x1="236.8" y1="117.7" x2="230.6" y2="121.4"/>
	<path class="st2" d="M261.4,115.9c0,0-4.3,2.5-4.3,3.7s1,1.4,2.3,0.8s3.9-1.4,3.9-2.7S262.7,115.7,261.4,115.9z"/>
	<g>
		<defs>
			<path id="SVGID_15_" d="M261.4,115.9c0,0-4.3,2.5-4.3,3.7s1,1.4,2.3,0.8s3.9-1.4,3.9-2.7S262.7,115.7,261.4,115.9z"/>
		</defs>
		<clipPath id="SVGID_16_">
			<use xlink:href="#SVGID_15_"  style="overflow:visible;"/>
		</clipPath>
		<g class="st22">
			<path class="st6" d="M261.4,115.9c0,0-4.3,2.5-4.3,3.7s1,1.4,2.3,0.8s3.9-1.4,3.9-2.7S262.7,115.7,261.4,115.9z"/>
		</g>
	</g>
	<path class="st7" d="M261.4,115.9c0,0-4.3,2.5-4.3,3.7s1,1.4,2.3,0.8s3.9-1.4,3.9-2.7S262.7,115.7,261.4,115.9z"/>
	<path class="st2" d="M260.6,113.2c0,0-4.1,1-4.3,2.5s5.1,0.4,6.2,0S263.7,112.6,260.6,113.2z"/>
	<g>
		<defs>
			<path id="SVGID_17_" d="M260.6,113.2c0,0-4.1,1-4.3,2.5s5.1,0.4,6.2,0S263.7,112.6,260.6,113.2z"/>
		</defs>
		<clipPath id="SVGID_18_">
			<use xlink:href="#SVGID_17_"  style="overflow:visible;"/>
		</clipPath>
		<g class="st23">
			<path class="st6" d="M260.6,113.2c0,0-4.1,1-4.3,2.5s5.1,0.4,6.2,0S263.7,112.6,260.6,113.2z"/>
		</g>
	</g>
	<path class="st7" d="M260.6,113.2c0,0-4.1,1-4.3,2.5s5.1,0.4,6.2,0S263.7,112.6,260.6,113.2z"/>
	<path class="st2" d="M262.7,119c0,0-4.9,2.3-5.1,3.1s-0.6,1.9,1.4,1.9s5.6-1.9,5.8-3.3S264.3,119,262.7,119z"/>
	<g>
		<defs>
			<path id="SVGID_19_" d="M262.7,119c0,0-4.9,2.3-5.1,3.1s-0.6,1.9,1.4,1.9s5.6-1.9,5.8-3.3S264.3,119,262.7,119z"/>
		</defs>
		<clipPath id="SVGID_20_">
			<use xlink:href="#SVGID_19_"  style="overflow:visible;"/>
		</clipPath>
		<g class="st24">
			<path class="st6" d="M262.7,119c0,0-4.9,2.3-5.1,3.1s-0.6,1.9,1.4,1.9s5.6-1.9,5.8-3.3S264.3,119,262.7,119z"/>
		</g>
	</g>
	<path class="st7" d="M262.7,119c0,0-4.9,2.3-5.1,3.1s-0.6,1.9,1.4,1.9s5.6-1.9,5.8-3.3S264.3,119,262.7,119z"/>
	<path class="st2" d="M264.3,121.8c0,0-4.5,2.1-4.7,2.8s-0.5,1.7,1.3,1.7s5.2-1.7,5.4-2.9S265.7,121.8,264.3,121.8z"/>
	<g>
		<defs>
			<path id="SVGID_21_" d="M264.3,121.8c0,0-4.5,2.1-4.7,2.8s-0.5,1.7,1.3,1.7s5.2-1.7,5.4-2.9S265.7,121.8,264.3,121.8z"/>
		</defs>
		<clipPath id="SVGID_22_">
			<use xlink:href="#SVGID_21_"  style="overflow:visible;"/>
		</clipPath>
		<g class="st25">
			<path class="st6" d="M264.3,121.8c0,0-4.5,2.1-4.7,2.8s-0.5,1.7,1.3,1.7s5.2-1.7,5.4-2.9S265.7,121.8,264.3,121.8z"/>
		</g>
	</g>
	<path class="st7" d="M264.3,121.8c0,0-4.5,2.1-4.7,2.8s-0.5,1.7,1.3,1.7s5.2-1.7,5.4-2.9S265.7,121.8,264.3,121.8z"/>
	<path class="st26" d="M226.2,79.9c0,0,8.1,14.2,9.6,19.9s2.8,21.8,2.8,21.8l16.2-2c0,0-0.5-14.5-2.8-21.5s-4-16-4-16L226.2,79.9z"
		/>
	<path class="st2" d="M239.6,101.3c0,0-1.9,3.5-0.8,4.9s3.6,2.1,3.9,2.5s2.1,11.7,2.1,11.7l5.7-0.5c0,0-2.8-10.5-2.1-12.5
		s2.3-3.9,0.7-5.6s-4.1-2.9-5.7-2.7C242,99.6,240.7,100.3,239.6,101.3z"/>
	<path class="st2" d="M234.5,81.2c0,0,4.7,12,4.3,14.1s-1.5,5.6,0.9,6s3.5-1.9,4.3-1.7s2.1,2.7,3.3,1.2s2.4-3.9,0.4-6.3
		s-3.5-3.7-4.5-6.2c-0.8-2.1-1.5-4.2-2.1-6.4L234.5,81.2z"/>
	<path class="st2" d="M175.3,143.4c0,0,2.9,0,6.4,3.1s16,15.8,16,15.8l24.3-26.5l8,7.6l-28.9,42.2c-1.4,0.5-2.8,0.7-4.3,0.6
		c-2.1-0.2-34.8-16.4-34.8-16.4"/>
	<g>
		<defs>
			<path id="SVGID_23_" d="M175.3,143.4c0,0,2.9,0,6.4,3.1s16,15.8,16,15.8l24.3-26.5l8,7.6l-28.9,42.2c-1.4,0.5-2.8,0.7-4.3,0.6
				c-2.1-0.2-34.8-16.4-34.8-16.4"/>
		</defs>
		<clipPath id="SVGID_24_">
			<use xlink:href="#SVGID_23_"  style="overflow:visible;"/>
		</clipPath>
		<g class="st27">
			<path class="st0" d="M193.1,179.7c-4.4,0-19.1-8.3-23.8-11.9c-1.6-1.3-2.9-2.8-3.8-4.6l-3.3,6.7c0,0,32.7,16.1,34.8,16.4
				c1.5,0.1,2.9-0.1,4.3-0.6l20.9-30.6C214.6,162.4,196.5,179.7,193.1,179.7z"/>
			<path class="st9" d="M193.1,179.7c-4.4,0-19.1-8.3-23.8-11.9c-1.6-1.3-2.9-2.8-3.8-4.6l-3.3,6.7c0,0,32.7,16.1,34.8,16.4
				c1.5,0.1,2.9-0.1,4.3-0.6l20.9-30.6C214.6,162.4,196.5,179.7,193.1,179.7z"/>
		</g>
	</g>
	<path class="st7" d="M175.3,143.4c0,0,2.9,0,6.4,3.1s16,15.8,16,15.8l24.3-26.5l8,7.6l-28.9,42.2c-1.4,0.5-2.8,0.7-4.3,0.6
		c-2.1-0.2-34.8-16.4-34.8-16.4"/>
	<line class="st7" x1="175.3" y1="176.6" x2="164.6" y2="176.4"/>
	<path class="st7" d="M197.7,161.9c0,0-6.2,7.4-6.9,11.4"/>
	<path class="st7" d="M195.8,162.6c0,0-5.2,4.8-6.5,7.2"/>
</g>
<g id="freepik--Floor--inject-37">
	<line class="st7" x1="24.1" y1="386" x2="413.5" y2="386"/>
</g>
</svg>
