<svg id="Layer_1" data-name="Layer 1" xmlns="http://www.w3.org/2000/svg" viewBox="0 0 270.16 512"><defs><style>.cls-1{fill:#000bfd;}.cls-2{fill:#0089ff;}.cls-3{fill:#283fe8;}.cls-4{fill:#1548c9;}.cls-5{fill:#426cff;}.cls-6{fill:#59a2e6;}</style></defs><path class="cls-1" d="M161.57,30h189V60h-189Z" transform="translate(-121 0)"/><path class="cls-1" d="M137,91H375.19v30H137Z" transform="translate(-121 0)"/><path class="cls-1" d="M149,151H363.19v30H149Z" transform="translate(-121 0)"/><path class="cls-2" d="M256.08,30h94.51V60H256.08Z" transform="translate(-121 0)"/><path class="cls-2" d="M256.08,151H363.19v30H256.08Z" transform="translate(-121 0)"/><path class="cls-2" d="M256.08,91H375.19v30H256.08Z" transform="translate(-121 0)"/><path class="cls-1" d="M149,332H363.19v30H149Z" transform="translate(-121 0)"/><path class="cls-1" d="M137,392H375.19v30H137Z" transform="translate(-121 0)"/><path class="cls-1" d="M161.57,452h189v30h-189Z" transform="translate(-121 0)"/><path class="cls-2" d="M256.08,452h94.51v30H256.08Z" transform="translate(-121 0)"/><path class="cls-2" d="M256.08,332H363.19v30H256.08Z" transform="translate(-121 0)"/><path class="cls-2" d="M256.08,392H375.19v30H256.08Z" transform="translate(-121 0)"/><path class="cls-3" d="M360.49,479.3c-14.7,21-29.7,29.7-31.2,30.6a14.92,14.92,0,0,1-15-25.8c.6-.3,11.1-6.9,21.6-21.9,21-30.31,29.1-58.5,23.4-84-9.9-45.6-54.91-75.71-103.21-104.51-57.3-34.8-118.81-69.3-132.61-132.61-7.5-33.9,2.1-71.2,28.21-108.4,14.7-21,29.7-29.71,31.2-30.6a14.73,14.73,0,0,1,20.4,5.4,14.73,14.73,0,0,1-5.4,20.4s-10.8,6.6-21.6,21.9c-21,30.3-29.1,59.5-23.4,85,9.9,45.61,54.9,74.41,103.2,103.51,57.3,34.81,119.11,70.61,132.61,133.61C396.19,405.79,386.59,442.09,360.49,479.3Z" transform="translate(-121 0)"/><path class="cls-4" d="M360.49,479.3c-14.7,21-29.7,29.7-31.2,30.6a14.92,14.92,0,0,1-15-25.8c.6-.3,11.1-6.9,21.6-21.9,21-30.31,29.1-58.5,23.4-84-9.9-45.6-54.91-75.71-103.21-104.51v-35.4c57.3,34.81,119.11,70.61,132.61,133.61C396.19,405.79,386.59,442.09,360.49,479.3Z" transform="translate(-121 0)"/><path class="cls-5" d="M388.69,141.07c-13.5,62.41-75.31,97.51-132.61,132.61-48.3,29.11-93.6,59.51-103.2,104.51-5.7,25.51,2.4,53.7,23.4,84,10.8,15.3,21.6,21.9,21.6,21.9a15,15,0,0,1-7.5,27.9,13.54,13.54,0,0,1-7.5-2.1c-1.5-.9-16.5-9.6-31.2-30.6-26.11-37.21-35.71-73.51-28.21-107.41,13.51-62.4,75.31-98.51,132.61-133.31,48.3-29.4,93.61-58.8,103.21-103.81,5.7-25.5-2.4-54.7-23.4-85-10.8-15.3-21.6-21.9-21.6-21.9a14.79,14.79,0,0,1-5.4-20.4,14.8,14.8,0,0,1,20.4-5.4c1.5.89,16.5,9.6,31.2,30.6C386.59,69.87,396.19,107.17,388.69,141.07Z" transform="translate(-121 0)"/><path class="cls-6" d="M388.69,141.07c-13.5,62.41-75.31,97.51-132.61,132.61v-35.1c48.3-29.4,93.61-58.8,103.21-103.81,5.7-25.5-2.4-54.7-23.4-85-10.8-15.3-21.6-21.9-21.6-21.9a14.79,14.79,0,0,1-5.4-20.4,14.8,14.8,0,0,1,20.4-5.4c1.5.89,16.5,9.6,31.2,30.6C386.59,69.87,396.19,107.17,388.69,141.07Z" transform="translate(-121 0)"/></svg>