<?xml version="1.0" encoding="utf-8"?>
<!-- Generator: Adobe Illustrator 25.0.0, SVG Export Plug-In . SVG Version: 6.00 Build 0)  -->
<svg version="1.1" id="Layer_1" xmlns="http://www.w3.org/2000/svg" xmlns:xlink="http://www.w3.org/1999/xlink" x="0px" y="0px"
	 viewBox="0 0 500 389" style="enable-background:new 0 0 500 389;" xml:space="preserve">
<style type="text/css">
	.st0{fill:#458FF6;}
	.st1{opacity:0.6;fill:#FFFFFF;enable-background:new    ;}
	.st2{fill:none;stroke:#263238;stroke-linecap:round;stroke-linejoin:round;}
	.st3{opacity:0.4;fill:#FFFFFF;enable-background:new    ;}
	.st4{fill:#263238;}
	.st5{fill:#FFFFFF;stroke:#263238;stroke-linecap:round;stroke-linejoin:round;}
	.st6{fill:#FFFFFF;stroke:#263238;stroke-linejoin:round;}
	.st7{opacity:0.1;enable-background:new    ;}
	.st8{opacity:0.2;fill:#FFFFFF;enable-background:new    ;}
	.st9{fill:#FFFFFF;}
	.st10{opacity:0.8;fill:#458FF6;enable-background:new    ;}
	.st11{fill:none;stroke:#FFFFFF;stroke-linecap:round;stroke-linejoin:round;}
	.st12{fill:none;stroke:#263238;stroke-miterlimit:10;}
	.st13{opacity:0.2;enable-background:new    ;}
</style>
<g id="freepik--background-simple--inject-2">
	<path class="st0" d="M394.7,232c-32.3-20.1-54.6-52.8-63-89.9c-1-4.4-2.1-8.9-3.4-13.2c-11.2-39.4-34.2-78.5-72.8-96.4
		c-16.2-7.5-34.2-10.9-52.1-12.2c-14.9-1.1-29.9-0.8-44.5,2.1c-58,11.9-99.1,63.7-97.4,122.9c0.3,13.1,2.6,26.1,2.1,39.1
		c-0.8,20.6-8.4,40.4-10.2,60.9c-3,34.4,11.5,68.6,37.7,91c42.1,36.1,106.9,45.5,160.5,45.1c101.4-0.8,183.2-42.5,182.8-93.1
		C434.3,266.9,419.4,247.4,394.7,232z"/>
	<path class="st1" d="M394.7,232c-32.3-20.1-54.6-52.8-63-89.9c-1-4.4-2.1-8.9-3.4-13.2c-11.2-39.4-34.2-78.5-72.8-96.4
		c-16.2-7.5-34.2-10.9-52.1-12.2c-14.9-1.1-29.9-0.8-44.5,2.1c-58,11.9-99.1,63.7-97.4,122.9c0.3,13.1,2.6,26.1,2.1,39.1
		c-0.8,20.6-8.4,40.4-10.2,60.9c-3,34.4,11.5,68.6,37.7,91c42.1,36.1,106.9,45.5,160.5,45.1c101.4-0.8,183.2-42.5,182.8-93.1
		C434.3,266.9,419.4,247.4,394.7,232z"/>
</g>
<g id="freepik--Room--inject-2">
	<line class="st2" x1="48.4" y1="324" x2="317.7" y2="231.8"/>
	<line class="st2" x1="316.1" y1="233" x2="316.1" y2="19.8"/>
	<line class="st2" x1="315.6" y1="232" x2="467.8" y2="271.3"/>
	<line class="st2" x1="240.6" y1="142.8" x2="268.3" y2="133.6"/>
	<polyline class="st2" points="247.8,127.6 275.5,118.4 275.5,106 252.1,113.2 	"/>
	<line class="st2" x1="259.8" y1="123.6" x2="259.8" y2="136.2"/>
	<line class="st2" x1="265.6" y1="96.4" x2="265.6" y2="108.9"/>
	<line class="st2" x1="249.1" y1="77.3" x2="276.7" y2="68.1"/>
	<line class="st2" x1="256.2" y1="62.2" x2="283.9" y2="52.9"/>
	<line class="st2" x1="268.2" y1="58.2" x2="268.2" y2="70.7"/>
</g>
<g id="freepik--Plant--inject-2">
	<path class="st0" d="M428.6,178.5c0,0,0.7-5.7,4.4-8.9s10.5-10,10.5-10s2.2,9.3-1.3,13.5s-13.4,12.2-13.4,12.2L428.6,178.5z"/>
	<path class="st3" d="M428.6,178.5c0,0,0.7-5.7,4.4-8.9s10.5-10,10.5-10s2.2,9.3-1.3,13.5s-13.4,12.2-13.4,12.2L428.6,178.5z"/>
	<path class="st0" d="M411.7,205.8c-3.2-4-7.3-7.2-11.9-9.4c0,0-0.8,6.9,4,10.1c2.5,1.8,5.2,3.2,8,4.1"/>
	<path class="st0" d="M408.7,184.1c-4.2-2.7-8.8-4.8-13.7-6.1c0,0,1.3,6.7,5.8,8.2c3.2,1.1,6.5,2,9.8,2.6L408.7,184.1z"/>
	<path class="st0" d="M398.6,165.5c-3.6-2.9-7.6-5.4-11.8-7.3c0,0,0.2,6.3,4,8.6c2.9,1.6,5.9,2.9,9.1,3.8L398.6,165.5z"/>
	<path class="st0" d="M398.3,164.5c0,0,0.1-4.7,2.5-7.7l5.6-7.1c0,0,2.2,7.4-0.5,10.4s-6.6,7.8-6.6,7.8L398.3,164.5z"/>
	<path class="st0" d="M428.8,186.9c0,0-1.2-6.7-5.1-10.9c-2.9-3.3-5.5-6.9-7.8-10.6c0,0-3.7,9.3-0.6,14.7s12,12.4,12,12.4
		L428.8,186.9z"/>
	<path class="st0" d="M412.4,211.2c0,0,1.5-8.2,6.3-13.9c0,0,3.5,6.8,0.7,11.6c-1.4,2.6-3.4,4.9-5.8,6.7L412.4,211.2z"/>
	<path class="st0" d="M417.8,224.3c0,0-5.2-7-10.3-8.1c0,0-0.9,6.6,3.4,9.5s8.8,5.6,8.8,5.6L417.8,224.3z"/>
	<path class="st0" d="M419.4,239.7c0,0-4.4-9.6-9.4-12.1c0,0-1.8,6.2,1.5,10.6c2.1,2.8,4.6,5.3,7.3,7.4L419.4,239.7z"/>
	<path class="st0" d="M426.2,236c0,0,0.3-8.4,2.8-13.2s7.5-12.6,7.5-12.6s3.6,8.5,1.9,13.3S428,240.9,428,240.9L426.2,236z"/>
	<path class="st0" d="M422.7,209c1.5-3.2,3.6-6,6.1-8.5c3.7-3.4,8.6-8.6,8.6-8.6s2.2,8.8,0,12.7c-2.2,3.9-13.6,12-15.3,13.7
		C422.1,218.3,420.8,212.3,422.7,209z"/>
	<path class="st0" d="M437.1,106.9c0,0-3-8.6-8.5-11.9s-7.6-7-7.6-7s-3.2,9.2,1.1,13.9s14.8,11.7,14.8,11.7L437.1,106.9z"/>
	<path class="st0" d="M429.8,137.4c0,0-1.7-8.7-6-13.3s-10.7-10.5-10.7-10.5s-2.5,8,1.1,13.5s14.4,14.2,14.4,14.2L429.8,137.4z"/>
	<path class="st0" d="M427.2,143.1c1.9-2.8,4.4-5.1,7.3-6.8c4.6-2.6,12.7-7,12.7-7s-2.7,12.4-7.4,15.1s-14.4,7.9-14.4,7.9
		S424.9,146,427.2,143.1z"/>
	<path class="st3" d="M411.7,205.8c-3.2-4-7.3-7.2-11.9-9.4c0,0-0.8,6.9,4,10.1c2.5,1.8,5.2,3.2,8,4.1"/>
	<path class="st3" d="M408.7,184.1c-4.2-2.7-8.8-4.8-13.7-6.1c0,0,1.3,6.7,5.8,8.2c3.2,1.1,6.5,2,9.8,2.6L408.7,184.1z"/>
	<path class="st3" d="M398.6,165.5c-3.6-2.9-7.6-5.4-11.8-7.3c0,0,0.2,6.3,4,8.6c2.9,1.6,5.9,2.9,9.1,3.8L398.6,165.5z"/>
	<path class="st3" d="M398.3,164.5c0,0,0.1-4.7,2.5-7.7l5.6-7.1c0,0,2.2,7.4-0.5,10.4s-6.6,7.8-6.6,7.8L398.3,164.5z"/>
	<path class="st3" d="M428.8,186.9c0,0-1.2-6.7-5.1-10.9c-2.9-3.3-5.5-6.9-7.8-10.6c0,0-3.7,9.3-0.6,14.7s12,12.4,12,12.4
		L428.8,186.9z"/>
	<path class="st3" d="M412.4,211.2c0,0,1.5-8.2,6.3-13.9c0,0,3.5,6.8,0.7,11.6c-1.4,2.6-3.4,4.9-5.8,6.7L412.4,211.2z"/>
	<path class="st3" d="M417.8,224.3c0,0-5.2-7-10.3-8.1c0,0-0.9,6.6,3.4,9.5s8.8,5.6,8.8,5.6L417.8,224.3z"/>
	<path class="st3" d="M419.4,239.7c0,0-4.4-9.6-9.4-12.1c0,0-1.8,6.2,1.5,10.6c2.1,2.8,4.6,5.3,7.3,7.4L419.4,239.7z"/>
	<path class="st3" d="M426.2,236c0,0,0.3-8.4,2.8-13.2s7.5-12.6,7.5-12.6s3.6,8.5,1.9,13.3S428,240.9,428,240.9L426.2,236z"/>
	<path class="st3" d="M422.7,209c1.5-3.2,3.6-6,6.1-8.5c3.7-3.4,8.6-8.6,8.6-8.6s2.2,8.8,0,12.7c-2.2,3.9-13.6,12-15.3,13.7
		C422.1,218.3,420.8,212.3,422.7,209z"/>
	<path class="st3" d="M437.1,106.9c0,0-3-8.6-8.5-11.9s-7.6-7-7.6-7s-3.2,9.2,1.1,13.9s14.8,11.7,14.8,11.7L437.1,106.9z"/>
	<path class="st3" d="M429.8,137.4c0,0-1.7-8.7-6-13.3s-10.7-10.5-10.7-10.5s-2.5,8,1.1,13.5s14.4,14.2,14.4,14.2L429.8,137.4z"/>
	<path class="st3" d="M427.2,143.1c1.9-2.8,4.4-5.1,7.3-6.8c4.6-2.6,12.7-7,12.7-7s-2.7,12.4-7.4,15.1s-14.4,7.9-14.4,7.9
		S424.9,146,427.2,143.1z"/>
	<path class="st4" d="M437,274.5c-8,2.6-16.6,2.6-24.6,0c-2.8,0-5.1-2.3-5.1-5.1l0,0V253h34.9v16.3
		C442.2,272.2,439.9,274.5,437,274.5C437.1,274.5,437.1,274.5,437,274.5z"/>
	<path class="st2" d="M397.7,162.2c0,0,2.5,11.3,8,18.1s6.5,13.6,6,20.4c-0.4,5.1,0.2,10.2,1.8,15c1.5,4.2,4.5,7.8,5.5,12.2
		c1.2,5.3,0.4,10.8-0.2,16.2c-0.4,3.9-0.9,7.8-1.6,11.7"/>
	<path class="st2" d="M433.4,255.8c0,0-11.3-26.7-11.3-40s6.8-22.1,6.8-30.4s-6-26.4-3.3-37.5s11.1-17.6,11.8-41.8"/>
	<line class="st2" x1="413.3" y1="214.8" x2="418.6" y2="203.7"/>
	<line class="st2" x1="402.8" y1="201.6" x2="412.1" y2="210"/>
	<line class="st2" x1="402.4" y1="184.1" x2="410.4" y2="188.5"/>
	<line class="st2" x1="417.9" y1="174.3" x2="428" y2="191"/>
	<line class="st2" x1="428.8" y1="183.5" x2="439.7" y2="169.6"/>
	<line class="st2" x1="425.4" y1="149.2" x2="436.6" y2="141.2"/>
	<line class="st2" x1="428.6" y1="139.8" x2="418.8" y2="126.3"/>
	<line class="st2" x1="437.1" y1="111.5" x2="433.8" y2="105.9"/>
	<path class="st2" d="M422.2,217.8c0,0,5-11.6,10.5-16.1"/>
	<path class="st2" d="M427.5,240.1c0,0,2.3-12.4,7.7-20.8"/>
	<path class="st2" d="M411.9,232.8c0.2,0.1,5.6,5.5,6.8,10.9"/>
	<path class="st2" d="M410.9,221.2c0,0,6.9,5.3,8.6,9"/>
	<line class="st2" x1="395" y1="166.8" x2="399.8" y2="169"/>
	<line class="st2" x1="398.9" y1="166.5" x2="400.8" y2="161.6"/>
</g>
<g id="freepik--Window--inject-2">
	<polygon class="st3" points="83.1,50 216.1,7.2 216.1,169.2 83.1,213 	"/>
	<polyline class="st2" points="211.7,42 211.7,13.2 83.1,51.9 83.1,102.3 83.1,154.1 83.1,157.2 83.1,213 	"/>
	<path class="st4" d="M154.3,190.2c-0.6,0-1-0.4-1-1V70.8c0-0.6,0.4-1,1-1s1,0.4,1,1v118.5C155.3,189.8,154.9,190.2,154.3,190.2z"/>
	<line class="st2" x1="211.7" y1="42" x2="211.7" y2="170"/>
	<path class="st4" d="M212.1,111.1l-128.9,44v3c0.2,0,0.3,0,0.5-0.1l128.5-43.8V111.1z"/>
	<polygon class="st4" points="216.1,169.2 211.7,170.5 211.7,7.2 216.1,7.2 	"/>
	<polygon class="st5" points="217.8,5.2 217.8,13.9 81.4,59.3 81.4,50.6 	"/>
	<polygon class="st5" points="217.8,20.2 217.8,27.6 81.4,74.9 81.4,66.6 	"/>
	<polygon class="st5" points="217.8,33.9 217.8,41.2 81.4,89.6 81.4,81.3 	"/>
	<polygon class="st5" points="217.8,47.6 217.8,54.9 81.4,104.3 81.4,96 	"/>
	<polygon class="st6" points="83.1,213 216.1,169.2 243.3,172.6 243.3,196.4 108,245.6 	"/>
	<polygon class="st4" points="82.7,213 108,220.9 108,246.1 82.7,237.8 	"/>
	<line class="st2" x1="243.3" y1="172.6" x2="88.5" y2="227.6"/>
</g>
<g id="freepik--Shadow--inject-2">
	<path class="st7" d="M402.2,325c-63.7,63.5-82.2,22.2-149.3,35.3c-64.2,12.4-89.9,6.4-91.9-11.3c-2.4-21,25.6-18.8,41.1-30.4
		c20.2-15.1,26.1-39.9,84.1-28.1C353.2,304.1,432.6,294.7,402.2,325z"/>
</g>
<g id="freepik--Character--inject-2">
	<path class="st0" d="M255.8,229.5l-11.5-3.3c0,0-0.7-8.6-4-9.2s-4.9,11.7-4.9,11.7s-21.9,9.1-34.6,23.8c0,0-16.1-5.6-16.5,2
		s12.7,10.5,12.7,10.5s10,30.2,30.7,37.3s41.4-11.2,41.4-11.2l25.2-21.4l-8.1-15.1l-11.5-14L255.8,229.5z"/>
	<path class="st8" d="M255.8,229.5l-11.5-3.3c0,0-0.7-8.6-4-9.2s-4.9,11.7-4.9,11.7s-21.9,9.1-34.6,23.8c0,0-16.1-5.6-16.5,2
		s12.7,10.5,12.7,10.5s10,30.2,30.7,37.3s41.4-11.2,41.4-11.2l25.2-21.4l-8.1-15.1l-11.5-14L255.8,229.5z"/>
	<path class="st2" d="M255.8,229.5l-11.5-3.3c0,0-0.7-8.6-4-9.2s-4.9,11.7-4.9,11.7s-21.9,9.1-34.6,23.8c0,0-16.1-5.6-16.5,2
		s12.7,10.5,12.7,10.5s10,30.2,30.7,37.3s41.4-11.2,41.4-11.2l25.2-21.4l-8.1-15.1l-11.5-14L255.8,229.5z"/>
	<path class="st2" d="M209.9,256.8c0,0,19-2.3,31.7,6.9"/>
	<path class="st2" d="M220.4,248.2c0,0,8.5,0.7,15.7,12.4"/>
	<path class="st2" d="M352.7,299.8c0,0-4.5-12.5-1.3-22.5"/>
	<path class="st0" d="M339.1,264.3c0,0,18.2-8.1,26.7-8.4c0,0,2.5-5.9,6.2-5.6s2.4,7,2.4,7s18.8,27,22.1,44.8c0,0,9.2,4.5,8.6,10
		s-10.2,2.5-10.2,2.5s-20.2,22.1-55.7,19.5S328.2,272.7,339.1,264.3z"/>
	<path class="st8" d="M339.1,264.3c0,0,18.2-8.1,26.7-8.4c0,0,2.5-5.9,6.2-5.6s2.4,7,2.4,7s18.8,27,22.1,44.8c0,0,9.2,4.5,8.6,10
		s-10.2,2.5-10.2,2.5s-20.2,22.1-55.7,19.5S328.2,272.7,339.1,264.3z"/>
	<path class="st2" d="M339.1,264.3c0,0,18.2-8.1,26.7-8.4c0,0,2.5-5.9,6.2-5.6s2.4,7,2.4,7s18.8,27,22.1,44.8c0,0,9.2,4.5,8.6,10
		s-10.2,2.5-10.2,2.5s-20.2,22.1-55.7,19.5S328.2,272.7,339.1,264.3z"/>
	<path class="st2" d="M353.6,303.2c-0.4-1.6,1.3-21,14.9-31.6"/>
	<path class="st2" d="M352.7,299.8c0,0-4.5-12.5-1.3-22.5"/>
	<path class="st4" d="M326.5,157.5c3.7,1.2,7.7,0,11.5-0.3c7.5-0.5,14.9,2.2,20.2,7.6c2,1.9,3.4,4.2,4.2,6.9c0.9,3.6,0.2,7.3-2,10.3
		c-1,1.1-1.9,2.2-2.7,3.4c-0.8,1.2-0.8,2.8-0.1,4.1c0.8,1,2,1.3,3.2,1.7c5.1,1.9,8.9,6.1,10.4,11.3c1.4,5.2,0.7,10.7-1.9,15.4
		c-1.6,3.2-4.2,5.9-7.3,7.7c-5.7,2.9-12.6,2-17.2-2.4c-3.1-3-4.7-7.2-7.5-10.5c-3.2-3.9-7.6-6.5-11.5-9.7s-7.5-7.3-7.9-12.4
		c-0.3-4.4,1.9-8.5,3.2-12.7s1.3-9.5-2.2-12.1c1.9-2,3.5-4,5.4-6C325.4,158.8,326.1,159,326.5,157.5z"/>
	<path class="st9" d="M255.8,262.1l4.3-10c0,0,7.3-22.6,9-24.5s5,2.2,5,2.2l9-31c0,0-5-0.1-9.9-0.3s-12.5,3.8-15.5,11.7
		S246.2,248,246.2,248l2.2,12l5.1,4.3L255.8,262.1z"/>
	<path class="st9" d="M354.2,306.4c0,7.1-1.6,13-5.2,17.4c-0.8-10-5.7-22.9-22.6-32.3c-25.6-11.2-44.9-13.6-44.9-13.6l-16.7-4.6
		l-0.4-9.9l21.5,3.2l-1.6-4.5c0,0-12.3-2-13.6-12.4s10-51.4,10-51.4s7.8,0.1,11.3-5.7s4-16.3,4-16.3l16.5-4.9c0,0-2.7,14.3-0.4,20.6
		s0.2,6,7,8.3s17.7,2,23.8,11.3c6.6,11.3,3.9,27.8-1.5,45.8c-5.2,13.1-5.9,14.8-5.9,14.8s1.2,6.4,4,8.9S354.2,294.5,354.2,306.4z"/>
	<path class="st9" d="M319.1,343.8c0,0,24.5-1.1,34.4-21.5c0,0,0-0.1-3.2-9.9s-15.9-20.7-29.2-23.7c0,0-7.7-19-16.8-19.8
		c-9.9-0.8-29.2,13.1-48.5,33c0,0-25-20-36.7-21.1c-9.8-1-15.1,5.7-13.4,11.7s6.4,16.5,10.2,19.9s14.8,10,14.8,10
		s-20.6,14.9-25,16.7s-36.5,10-36.5,10s1.8,7.4,8.6,9.1s13.4,3.4,19.5,1.4s10.3-4,14.3-4.5s11-0.6,10.4-7.9c0,0,13.7-11.6,28.2-18.4
		l31.1,9.6c0,0,25.9,19.5,46.2,22.8c0,0,3,0.3,2.5-4.7S319.1,343.8,319.1,343.8z"/>
	<path class="st10" d="M274.2,318.5c4.6-1.7,9-3.7,13.3-6.1l5.2,15.3C292.7,327.7,278.2,322.3,274.2,318.5z"/>
	<path class="st9" d="M295.4,138.7c0,0-12,3.8-14.1,11.4c0,0,0.8,18.1,2.3,25.8s1,9.5,3.7,10.6s12.9-2.6,15.4-3.4s6-6.8,6-6.8
		s4-1.6,5.5-4.1s4.4-8.7,3.7-14.4S302.1,138.4,295.4,138.7z"/>
	<path class="st0" d="M335.6,272.6c0,0-1.5,5.3,6.7,11.5c8,6,12.8,17.3,12.8,26.7c0,4.8,0,5.4-1.6,10.6c0,0-3.2-8.1-12-18.3
		c-8.5-7.4-13.1-6.7-16.5-7c-1.2-3.5-2.8-7-4.6-10.2c3.9,0.6,5.4,0.7,6.8,0.5C331.1,284.1,335.6,272.6,335.6,272.6z"/>
	<path class="st0" d="M285.9,198.1l-5.2,0.7c-3.2,9.8-5.8,19.7-7.9,29.7c-3.3,16-3.4,24.4-1.3,26.9s12.7,7.2,12.7,7.2l1.5,4.1
		c0,0,22.4,1.5,32.1-1.4c1-2.2,1.6-4.6,1.8-7.1c0.2-4-0.1-3.4,0.9-8.2s2.9-12.5,2.9-12.5s-8.1-8.7,1.4-35.4l-6.8-1.7
		c0,0-5.3,18.2-6.5,24.3s-1.4,23.2-17.9,22s-15.1-7.2-15.4-9.2s-0.2-11.5,2-19.9S285.9,198.1,285.9,198.1z"/>
	<path class="st2" d="M287.3,158.2c0,0,1,4-1,6.7s-3.8,2.5-3.4,3.8s6.3,1.1,6.3,1.1"/>
	<path class="st2" d="M294.5,174.2c0,0-2,2.5-6.3,1.4"/>
	<path class="st2" d="M290,157.2c0,0,1.8-2.8,6,0.3"/>
	<path class="st2" d="M285.6,156.4c0,0-1.4-2-3.8,0.4"/>
	<path class="st4" d="M292.1,161.8c-0.1,1.2,0.2,2.2,0.8,2.2s1.1-0.9,1.2-2s-0.2-2.2-0.8-2.2S292.2,160.7,292.1,161.8z"/>
	<path class="st4" d="M283.5,161c-0.1,1.2,0.2,2.2,0.8,2.2s1.1-0.9,1.2-2s-0.2-2.2-0.8-2.2S283.6,159.8,283.5,161z"/>
	<path class="st2" d="M308.7,169.6c0,0,5.2-6.4,7.1-5.5s0.3,6.6-2.5,9.4s-4.2,2.1-5.6-1.2"/>
	<path class="st2" d="M281.3,148.8c0,0,1.6,34.2,4.9,37.1s13.9-1.4,17.2-3c2.3-1.2,5-5.6,6.1-7.7"/>
	<path class="st2" d="M313.1,197.1c-2.7-9.8-0.4-23.1-0.4-23.1"/>
	<path class="st4" d="M310.9,167.1c0,0-6.3-3.8-6.3-7.4c-0.1-7.9-6.7-2.1-10.5-8.4c-2-3.3-1.1-7.3,0.4-11.1l-0.2-6.2
		c0,0,14.7-12,27.9,1.6s4,28.3-6,32.3c0,0,1.4-2.7-0.5-3.9S310.9,167.1,310.9,167.1z"/>
	<path class="st4" d="M294.5,140.2c0,0-7.4,0.8-13.2,10.9v4.5c-2-0.1-3.5-1.7-3.6-3.7c-0.3-3.4,3.6-4.8,2.5-9.4s2-12.4,14.2-8.6
		L294.5,140.2z"/>
	<path class="st11" d="M298.7,137.7c-1.5,1.9-0.9,4.7,0.6,6.5s3.9,2.7,6.1,3.5s4.6,1.6,6.4,3.1c3.5,3.1,3.9,6.3,4,11.1"/>
	<path class="st11" d="M301.8,134.2c-0.5,0.7-0.5,1.7,0,2.4c0.6,0.7,1.3,1.2,2.1,1.5c5.4,2.3,12.1,2.3,16.3,6.5
		c2.3,2.4,3.5,5.6,3.6,8.9c0.1,3.3-0.5,5.5-2.9,7.6"/>
	<path class="st11" d="M367.5,210.5c0.6,3,0.3,6.2-0.9,9.1"/>
	<path class="st11" d="M327,160.8c5,0.3,9.8,1.6,14.2,3.8c3,1.5,5.8,3.6,7.2,6.7c1.5,3.4,1,7.2,0.5,10.9s-0.6,7.7,1.4,10.7
		c2.4,3.6,7,4.7,10.6,7.2c2.4,1.7,4.2,4,5.4,6.6"/>
	<path class="st11" d="M343.5,191.2l-0.1,1.1c-0.4,2.8-0.7,5.6-0.8,8.4c-0.1,2.8,0.7,5.6,2.2,8c1.6,2.3,4,3.9,6,5.9
		c3.2,3.2,4.7,7.7,4.1,12.2"/>
	<path class="st11" d="M323.8,165c2.5,0.3,4.9,1,7.2,2c3.5,1.2,6.6,3.4,9,6.2c2.2,3.1,3.5,6.8,3.7,10.6"/>
	<path class="st2" d="M324.9,201.7c0,0-10,28.8-1.4,35.9"/>
	<path class="st12" d="M239.2,261c5.9-7.5,15.5-39.1,18-49.4s10.1-13.6,19.2-12.9c3.8,0.3,8.1,0.3,11.6-1.5
		c4.1-2.1,5.1-6.7,5.9-11.1"/>
	<path class="st2" d="M272.3,227.8c0,0-2.3-2.3-3.5,0c-0.8,1.6-6.2,18-10.7,29.3"/>
	<path class="st2" d="M285.7,266.8l-1.5-4.1c0,0-11.5-3.5-13.1-8.9s0.9-30.7,9.6-55"/>
	<path class="st2" d="M285.9,198.1c0,0-5.9,17.6-7.6,29.7s2,19.1,13,19s16.4-1.8,19.4-17.9c1.8-9.6,4.3-19.1,7.4-28.4"/>
	<path class="st2" d="M293.2,235.5c0.2-0.8,0.5-1.6,0.8-2.5"/>
	<path class="st2" d="M292.4,246.6c0,0-1.1-2.6,0.2-8.6"/>
	<path class="st2" d="M282.4,278.4c-2.6-0.5-5.2-0.9-7.7-1.2c-11.3-1.3-20.1-3.2-27.6-2.7"/>
	<path class="st2" d="M335.6,272.6c0.9,5.8,3.8,8.6,7.8,12.6c8.7,8.7,14,22.4,10.9,34.8c-4,15.9-20.3,22-35.1,23.7"/>
	<path class="st2" d="M331.1,289.9c0,0,8,0.6,12.4,5.1"/>
	<path class="st2" d="M325.1,296.2c0,0,18.5-1.2,28.4,26.1"/>
	<path class="st5" d="M236.9,243.6c0,0-7.4-1.4-8.2,1.6s3.8,2.6,3.8,2.6c-0.6,0.8-1,1.7-1.2,2.7c-0.1,1.2,2.5,1.5,2.5,1.5
		s-1.6,0.9-1,1.7c0.3,0.4,0.5,0.8,0.6,1.3c0,0-0.6,2.9,3.8,4C237.1,258.9,236.3,246.2,236.9,243.6z"/>
	<path class="st5" d="M236.1,239.5h17.2l0,0v15.1c0,4.3-3.5,7.8-7.8,7.8h-1.7c-4.3,0-7.8-3.5-7.8-7.8L236.1,239.5L236.1,239.5z"/>
	<path class="st2" d="M236.1,243.4c0,0-7.4-0.9-7.5,2.2s7.1,1.9,7.1,1.9"/>
	<path class="st2" d="M236.1,247.7c0,0-5-0.7-5,2.3s5,2.1,5,2.1"/>
	<path class="st2" d="M233,252c0,0-1.4,3.6,3.1,3.5"/>
	<path class="st2" d="M233.9,255c0,0-0.7,3,2.9,3.5"/>
	<path class="st2" d="M242.6,213.7c0.5-1.3,1.3-2.4,2.4-3.2"/>
	<path class="st2" d="M248.1,237.3c0.6-2.4,0.4-4.8-0.6-7c-0.9-1.7-2-3.4-3.1-4.9c-1.5-2.3-2.3-4.9-2.4-7.6"/>
	<path class="st2" d="M242,231.1c1.3,1.7,1.9,3.8,1.8,5.9"/>
	<path class="st2" d="M240.7,202.7c-3.6,2.6-5.8,6.7-6.1,11.1c-0.3,4.4,1,8.7,3.6,12.3"/>
	<path class="st9" d="M264.4,263.9l-4.8-6c0,0-4.1-1.5-5.5-2.3s-3.3-2.6-3.4-0.6s5.3,5.3,5.3,5.3c-1.7,0.5-3.5,0.9-5.3,1.1
		c-3,0.4-12.4,2.1-12,3s4.9,0.1,4.9,0.1l4.5,0.5c0,0-11.6,2.9-11.4,3.9s4.5,0.7,4.5,0.7s-2.3,0.8-2.3,1.5s8.3,1.5,8.3,1.5
		s1.6,1.4,8.1,1.1c6.4-0.3,10-0.3,10-0.3l1.5-4.2L264.4,263.9z"/>
	<path class="st2" d="M326.4,226.5c0,0-6.6,23.6-6.6,29.1c0,3.4-0.7,6.7-2,9.8c0,0-18.6,1.8-26,1.8s-27.4-3.2-27.4-3.2
		s-2.1-2.7-3.5-4.6s-3-1.9-4.5-2.5s-5.2-3.2-5.5-2.6s-0.4,2.4,2,3.9c1.3,0.7,2.4,1.5,3.5,2.5c-1.7,0.5-3.6,0.8-5.4,0.8
		c-2.3-0.1-12.2,2.1-12.4,3s4.9,0.1,4.9,0.1l4.5,0.5c0,0-11.6,3-11.4,3.9s8.9,1,12.5,0.3"/>
	<path class="st2" d="M242.7,269.6c0,0-4.1,0.8-3.9,1.5s6.6,1.7,10.6,0.9"/>
	<path class="st2" d="M282.4,278c-10.3-2.4-17.6-4.3-17.6-4.3s-13.1-0.1-14.1-0.1c-1.5-0.3-3-0.8-4.5-1.4"/>
	<path class="st2" d="M313.1,197.1c0,0,0.6,2.1,5,3.4S336,201.3,343,212c7,10.7,3.5,28.4,1.3,37.2s-12.9,35.6-17,37.4
		c-0.9,0.4-2.3,0.2-6.9-0.6"/>
	<path class="st13" d="M321.5,201.1c0,0-4.7,21.3-7.5,35.9c-2.7,14-22.9,20.7-26.7,19.1s-6.1,3,2.8,3.7s-5.8,2.9-5.8,2.9l1.6,4.5
		c0,0,26.1-0.7,32-1.8c1.1-2.2,1.7-4.6,1.8-7.1c0.1-3.9,3.8-20.7,3.8-20.7s-7.1-5.3,1.4-35.4L321.5,201.1z"/>
	<path class="st13" d="M320.3,285.7c1.7,2.6,2.2,4.9,4.5,10.1c0,0,12.5,0.3,19.2,10c-2.1-4-4.7-7.6-7.8-10.9c0,0,8.8,7.5,10.6,7
		s-1.1-7-9.5-10.4c0,0,3.4-2.4,0-12.4l-1.8-6.5c0,0-4.8,12.4-8.3,14c-1.2,0.5-3,0.1-6.8-0.5"/>
	<path class="st2" d="M306.4,296.5c-4,7.1-11.9,12.1-18.9,15.9c-11.6,6.3-24.5,9.6-36.2,15.8c-10,5.4-21.1,10.8-29.2,18.9
		c0,0-1.3,7-6.5,7.4c-8.4,0.6-11.5,3.2-18.3,5s-26.4,1-28.2-10.5c12.7-2.4,32.8-8,36.5-10c13.7-8,26.8-17.1,39-27.3
		c19-15.6,48.6-50,62.6-41.5s13.2,22.2,22.8,33.9"/>
	<path class="st2" d="M253.2,304.1c0,0-19.2-17.8-34.1-16.4"/>
	<path class="st2" d="M255.8,301.9c-7.7-6.7-16.2-12.4-25.2-17.1c-4-2-8.4-3.9-12.9-4.2c-8.3-0.5-13.9,6.8-11.4,14.6
		c2.5,8,7.8,17.2,15.1,21.7c3.3,2,4.7,3.3,9.4,5.4"/>
	<path class="st2" d="M250.4,328.7c0,0,22.7,6,31.1,9.6c12.8,11.4,44.2,26.4,47.7,22.1s-2-11.3-10-16.6c-7.6-5-4.2-18-17.7-13.1
		c0,0-17.7-5-27.2-12.2"/>
	<path class="st2" d="M287.5,312.4c1.5,5.3,3.3,10.5,5.6,15.5"/>
	<path class="st2" d="M182.3,359.2c0,0-0.1-2.7,4.1-3.7"/>
	<path class="st2" d="M178.4,358.2c0,0,0.2-4,6.7-5.4"/>
	<path class="st2" d="M173.1,355.5c0,0-0.2-3.4,2.4-3.7c2.1-0.4,4.2-1,6.2-1.8"/>
	<path class="st2" d="M323,353.3c1,1.1,1.9,2.4,2.7,3.7c0.8,1.3,2.1,2.3,3.6,2.6"/>
	<path class="st2" d="M321,357.4c1.6,2.6,4.7,4,7.7,3.4"/>
</g>
</svg>
