<?xml version="1.0" encoding="utf-8"?>
<!-- Generator: Adobe Illustrator 25.0.0, SVG Export Plug-In . SVG Version: 6.00 Build 0)  -->
<svg version="1.1" id="Layer_1" xmlns="http://www.w3.org/2000/svg" xmlns:xlink="http://www.w3.org/1999/xlink" x="0px" y="0px"
	 viewBox="0 0 500 500" style="enable-background:new 0 0 500 500;" xml:space="preserve">
<style type="text/css">
	.st0{fill:#458FF6;}
	.st1{opacity:0.7;fill:#FFFFFF;enable-background:new    ;}
	.st2{fill:none;stroke:#263238;stroke-miterlimit:10;}
	.st3{fill:none;stroke:#263238;stroke-linecap:round;stroke-linejoin:round;}
	.st4{fill:#263238;stroke:#263238;stroke-linecap:round;stroke-linejoin:round;}
	.st5{fill:none;stroke:#FFFFFF;stroke-linecap:round;stroke-linejoin:round;}
	.st6{fill:#263238;}
	.st7{fill:#808080;}
	.st8{fill:none;stroke:#C7C7C7;stroke-miterlimit:10;}
	.st9{fill:#B2B2B2;stroke:#263238;stroke-miterlimit:10;}
	.st10{fill:#263238;stroke:#263238;stroke-miterlimit:10;}
	.st11{fill:#FFFFFF;stroke:#263238;stroke-miterlimit:10;}
	.st12{fill:#458FF6;stroke:#263238;stroke-miterlimit:10;}
	.st13{fill:#FFFFFF;stroke:#000000;stroke-miterlimit:10;}
	.st14{fill:#707070;stroke:#263238;stroke-miterlimit:10;}
	.st15{fill:#474747;stroke:#263238;stroke-miterlimit:10;}
	.st16{fill:#919191;stroke:#263238;stroke-miterlimit:10;}
</style>
<g id="freepik--background-simple--inject-225">
	<path class="st0" d="M451.9,189.7c-1.3-3.1-2.7-6.1-4.2-9C394.8,75.2,254.6-13.9,144,55.7c-25.9,16.2-43.4,42.8-48,73
		c-8.3,52.6-17.9,110-45.2,156c-14.8,25.1-31.1,55.3-25.8,86c8.5,48.7,60,71.1,101.4,78.4c44.1,7.7,87.6-2.8,127.4-22.8
		c41.8-21,77.5-50.1,122.1-65.3c20.8-7.1,44.3-10.6,61.8-25.5C480.9,299,473.1,237.1,451.9,189.7z"/>
	<path class="st1" d="M451.9,189.7c-1.3-3.1-2.7-6.1-4.2-9C394.8,75.2,254.6-13.9,144,55.7c-25.9,16.2-43.4,42.8-48,73
		c-8.3,52.6-17.9,110-45.2,156c-14.8,25.1-31.1,55.3-25.8,86c8.5,48.7,60,71.1,101.4,78.4c44.1,7.7,87.6-2.8,127.4-22.8
		c41.8-21,77.5-50.1,122.1-65.3c20.8-7.1,44.3-10.6,61.8-25.5C480.9,299,473.1,237.1,451.9,189.7z"/>
</g>
<g id="freepik--Dresser--inject-225">
	<polyline class="st2" points="58,54 276,54 276,477 45,477 45,54 51.5,54 	"/>
	<rect x="199" y="63.2" class="st2" width="70" height="404.7"/>
	<rect x="125" y="63.2" class="st2" width="66" height="404.7"/>
	<line class="st2" x1="117" y1="173.2" x2="117" y2="165.9"/>
	<polyline class="st2" points="117,159.3 117,63.2 52,63.2 52,467.8 117,467.8 117,182.2 	"/>
</g>
<g id="freepik--Plants--inject-225">
	<path class="st0" d="M431.7,268.9c0,0,0-4.7-6.5-11.2s-10.7-10.2-10.7-10.2s-3.3,10.7,2.8,17.2c4.5,4.6,9.3,8.8,14.5,12.6
		L431.7,268.9z"/>
	<path class="st0" d="M422.2,298c0,0,0-4.6-6.5-11.2S405,276.5,405,276.5s-3.3,10.7,2.8,17.2c4.5,4.6,9.3,8.8,14.4,12.6L422.2,298z"
		/>
	<path class="st0" d="M431.2,276.8c0,0,0.5-4.6,7.7-10.4s11.7-9.1,11.7-9.1s2.1,11-4.6,16.9c-4.9,4.1-10.2,7.8-15.7,11L431.2,276.8z
		"/>
	<path class="st0" d="M419.8,311.2c0,0,1-4.6,8.7-9.6s12.6-7.8,12.6-7.8s0.9,11.2-6.4,16.3c-5.3,3.6-10.9,6.7-16.8,9.3L419.8,311.2z
		"/>
	<path class="st0" d="M422,348.7c0,0,0-4.7,6.5-11.2s10.7-10.2,10.7-10.2s3.3,10.7-2.8,17.2c-4.5,4.6-9.3,8.8-14.4,12.5V348.7z"/>
	<path class="st0" d="M421.9,357.8c0,0,0.7-4.6-4.9-12s-9.1-11.7-9.1-11.7s-4.8,10.1,0.3,17.5c3.8,5.2,7.9,10,12.5,14.5L421.9,357.8
		z"/>
	<path class="st0" d="M415.4,384.9c0,0,0-4.7,6.5-11.2s10.7-10.2,10.7-10.2s3.3,10.7-2.8,17.2c-4.5,4.6-9.3,8.8-14.4,12.6V384.9z"/>
	<path class="st0" d="M419.8,409.5c0,0-1.2-4.5,3.5-12.5s7.8-12.6,7.8-12.6s5.9,9.5,1.7,17.4c-3.1,5.6-6.8,10.9-10.8,15.8
		L419.8,409.5z"/>
	<path class="st3" d="M432.2,267.7c-0.3,4.9-0.9,9.7-1.8,14.5c-2.6,13.3-9,21.9-11.6,34s4.8,27.5,2.8,43s-8,24-6.3,34.4
		s11.1,39.5,11.1,39.5"/>
	<line class="st3" x1="431.2" y1="279.9" x2="438.2" y2="274.5"/>
	<line class="st3" x1="431.5" y1="273.7" x2="428.6" y2="268.5"/>
	<path class="st3" d="M419.2,315.6c0,0,5.9-4.4,11.9-8.8"/>
	<path class="st3" d="M422.2,306.4c0,0-4.9-9.6-10.5-16"/>
	<path class="st3" d="M422.2,355.3c3.4-6.2,7.6-11.9,12.6-16.8"/>
	<path class="st3" d="M421,361.8c-1.8-4.2-3.9-8.2-6.4-12.1c-3.4-5.1-3.9-5.7-3.9-5.7"/>
	<path class="st3" d="M415.4,393.5c1.5-3.7,3.3-7.3,5.3-10.7c2-3.2,4.3-6.2,6.9-9"/>
	<path class="st3" d="M421.9,417.6c-0.3-3.5,0.3-7.1,1.8-10.3c2.5-4.7,5.2-11,6.4-13.4"/>
	<path class="st0" d="M388.9,331.1c0,0-0.5-2.9,2.9-7.7s5.6-7.6,5.6-7.6s3.2,6.4,0.1,11.1c-2.3,3.4-4.9,6.5-7.7,9.5L388.9,331.1z"/>
	<path class="st0" d="M398,348.4c0,0-0.5-2.9,2.9-7.7s5.6-7.6,5.6-7.6s3.2,6.4,0.1,11.1c-2.3,3.4-4.9,6.5-7.7,9.5L398,348.4z"/>
	<path class="st0" d="M390.1,336.1c0,0-0.8-2.9-5.9-5.7s-8.4-4.4-8.4-4.4s-0.1,7.1,4.7,10.1c3.5,2,7.2,3.8,11,5.2L390.1,336.1z"/>
	<path class="st0" d="M401,356.4c0,0-1.1-2.8-6.5-5s-8.8-3.5-8.8-3.5s0.6,7.1,5.8,9.5c3.7,1.7,7.6,3,11.5,4L401,356.4z"/>
	<path class="st0" d="M403.7,380.1c0,0-0.5-2.9-5.3-6.3s-7.8-5.3-7.8-5.3s-0.9,7.1,3.6,10.5c3.3,2.4,6.8,4.5,10.4,6.3L403.7,380.1z"
		/>
	<path class="st0" d="M404.7,385.8c0,0-0.9-2.8,1.8-8.1s4.5-8.3,4.5-8.3s4.1,5.9,1.7,11c-1.8,3.7-3.9,7.1-6.3,10.5L404.7,385.8z"/>
	<path class="st0" d="M412.9,409.4c0,0,0.3-2.9,4.9-6.6s7.5-5.7,7.5-5.7s1.3,7-3,10.7c-3.2,2.6-6.5,4.9-10,6.9L412.9,409.4z"/>
	<path class="st0" d="M411.7,402.1c0,0-0.5-2.9-5.3-6.3s-7.8-5.3-7.8-5.3s-0.9,7.1,3.6,10.5c3.3,2.4,6.8,4.5,10.4,6.3L411.7,402.1z"
		/>
	<path class="st0" d="M411.6,418c0,0,0.3-3-3.5-7.5s-6.2-7.1-6.2-7.1s-2.6,6.6,0.8,11.1c2.6,3.1,5.4,6.1,8.5,8.8L411.6,418z"/>
	<path class="st3" d="M388.4,330.5c0.7,3,1.6,6,2.7,8.9c3.1,8.1,8,12.8,11,20s0,17.8,2.9,27.3s7.6,14.2,7.7,20.9s-2.6,25.2-2.6,25.2
		"/>
	<line class="st3" x1="390.4" y1="338" x2="385.4" y2="335.4"/>
	<line class="st3" x1="389.6" y1="334.1" x2="390.8" y2="330.5"/>
	<path class="st3" d="M401.8,359c0,0-4.2-2.1-8.4-4.2"/>
	<path class="st3" d="M399,353.6c1.2-3.9,2.8-7.6,4.8-11.2"/>
	<path class="st3" d="M404.3,384.3c-2.8-3.5-6.1-6.6-9.7-9.2"/>
	<path class="st3" d="M405.7,388.3c0.7-2.8,1.6-5.6,2.7-8.3c1.6-3.5,1.8-4,1.8-4"/>
	<path class="st3" d="M412.4,412.5c1.6-2,3.4-3.9,5.4-5.6c1.2-0.9,2.4-1.9,3.5-3"/>
	<path class="st3" d="M412.6,407.5c-1.3-2.2-2.8-4.2-4.5-6.1c-1.6-1.8-3.4-3.4-5.3-4.9"/>
	<path class="st3" d="M411.2,423.3c-0.2-2.3-0.9-4.4-2.2-6.3c-2.1-2.7-4.5-6.3-5.5-7.7"/>
	<path class="st4" d="M430.4,477h-27.2c-1.2,0-2.1-0.9-2.1-2.1c0,0,0,0,0,0l-6.8-42h45l-6.8,42C432.5,476,431.6,477,430.4,477z"/>
	<line class="st5" x1="396" y1="438.9" x2="428.5" y2="438.9"/>
	<line class="st5" x1="431.5" y1="438.9" x2="436.8" y2="438.9"/>
	<path class="st0" d="M48.9,271.2c0,0-0.2-6-2.8-10.2s-11.8-7.1-16.6-5.1c-2.5,1-4.8,2.2-7.2,3.5c4.8,1.5,9.4,3.7,13.6,6.5
		C39.8,268.5,44.2,270.3,48.9,271.2z"/>
	<path class="st0" d="M58.5,274.2c0,0-5.5-5.3-6.5-12.7s6.9-18.9,6.9-18.9c2.6,4.9,4.7,10.1,6.2,15.5
		C67.6,266.3,58.5,274.2,58.5,274.2z"/>
	<path class="st0" d="M69.2,271.9c0,0-1.4-6.9,1.2-11.8s9.2-4.4,15.9-2.3c6.7,2.1,8.8,2.1,8.8,2.1c-4.6,3.1-9.5,5.8-14.6,8.1
		C76.8,269.5,73,270.8,69.2,271.9z"/>
	<path class="st6" d="M58.6,296.7c-0.3,0-0.6-0.3-0.6-0.6c0,0,0,0,0,0v-33c0-0.3,0.3-0.6,0.6-0.6c0,0,0,0,0,0c0.3,0,0.6,0.3,0.6,0.6
		l0,0v33C59.2,296.5,58.9,296.7,58.6,296.7L58.6,296.7z"/>
	<path class="st6" d="M61.4,296.7L61.4,296.7c-0.4,0-0.6-0.3-0.6-0.7c0.1-0.8,2.9-20.4,12.4-31.2c0.2-0.2,0.6-0.3,0.8-0.1
		c0,0,0,0,0,0c0.2,0.2,0.3,0.6,0.1,0.8C64.8,276.2,62,296,62,296.2C62,296.5,61.7,296.7,61.4,296.7z"/>
	<path class="st6" d="M55.8,296.3L55.8,296.3c-0.3,0-0.6-0.3-0.6-0.6c0,0,0,0,0,0c0-0.2,0.1-19-11.1-27.9c-0.3-0.2-0.3-0.6-0.1-0.8
		c0.2-0.3,0.6-0.3,0.8-0.1c11.6,9.3,11.5,28.1,11.5,28.9C56.4,296,56.2,296.3,55.8,296.3z"/>
	<path class="st6" d="M65.1,296c-0.1,0-0.1,0-0.2,0c-0.3-0.1-0.5-0.4-0.4-0.7c0,0,0,0,0,0c1.2-4,3-7.8,5.4-11.3
		c0.2-0.3,0.6-0.3,0.9-0.1s0.3,0.6,0.1,0.9l0,0c-2.3,3.3-4.1,7-5.2,10.9C65.6,295.8,65.4,296,65.1,296z"/>
	<path class="st0" d="M68.7,286.9c0,0-0.2-6.5,2.5-7.4s5.3,1.4,7.4,2.8s4.4,2.8,4.4,6.9s-1.6,11.8-1.6,11.8s-2.3-7.2-6.2-10.4
		S68.7,286.9,68.7,286.9z"/>
	<path class="st6" d="M51.7,296.3c-0.3,0-0.5-0.2-0.6-0.4c0,0-1.8-5.6-6-9c-0.3-0.2-0.3-0.6-0.1-0.8c0.2-0.3,0.6-0.3,0.8-0.1l0,0
		c4.5,3.5,6.4,9.3,6.4,9.5c0.1,0.3-0.1,0.6-0.4,0.8L51.7,296.3z"/>
	<path class="st0" d="M48.9,288.9c0,0,0.9-4.1-1.4-7.1s-7.8-2.3-10.6,0.9s-6.7,12.9-6.7,12.9s5.5-4.4,12-4.4S48.9,288.9,48.9,288.9z
		"/>
	<polygon class="st4" points="67.2,331.6 48.8,331.6 39.6,301.2 76.5,301.2 	"/>
	<rect x="39.5" y="296.1" class="st4" width="37" height="5"/>
	<path class="st4" d="M27.3,330.9v145.8h5.3v-57.2h93.9v57.2h5.3V330.9H27.3z M32.6,414.1v-56.6h93.9v56.6L32.6,414.1z"/>
</g>
<g id="freepik--Picture--inject-225">
	<rect x="320.6" y="32.3" class="st2" width="104.8" height="206.7"/>
	<rect x="325" y="37.1" class="st2" width="96" height="197.2"/>
	<path class="st7" d="M378.8,46.1c0,0-5.2-4.7-11-0.5s-2.2,11.6-2.2,11.6c0,1.2,0.2,2.4,0.5,3.5c0.5,1.2,1.7,2.8,1.9,3.3
		c0.5,1.6,0.3,3.2-0.4,4.7c-1,1.9-12,4-13.7,9.2s-3.6,21.4-4,22.8s-6.1,15.1-6.6,17.5c-0.5,2.1-1.2,4.1-1.9,6.1c0,0-7.5,4.7-7.8,5.9
		s0.7,0.9,1.7,0.9s0.7-0.7,1,0s-1.7,5.6-1.7,5.6s0.4,1.2,1.4,0.5c0.7-0.6,1.3-1.4,1.6-2.2l-0.8,4.9c-0.1,0.4,0.2,0.8,0.6,0.9
		c0,0,0,0,0,0l0,0c0.3,0,0.7-0.1,0.8-0.5l1.9-4.2L340,140c-0.2,1.2,0.8,2.1,1.4,0.8l0.5-1.5l0.7-3.8l0.3,3.3c0,0.4,0.4,0.7,0.8,0.7
		c0,0,0.1,0,0.1,0l0,0c0.3-0.1,0.5-0.4,0.6-0.7l0.2-5.2c0.7-1.7,1.2-3.4,1.4-5.2c0-0.9,0-1.9,0.2-2.8c0,0,9-13.7,9.9-17.4
		s1.9-8.9,2.4-9.7c0.4-1,0.8-2,1-3c0,0,2.1,5,1.6,9s-2.4,9.9-3,13.7s-1.4,14.9-1.4,21.4s2.6,20.5,2.8,21.7s-3.5,14.1-2.4,20
		s1.7,22.8,1.6,24.2c-0.5,2-1.3,3.8-2.4,5.6c-0.9,1.4-1,3.5-0.4,4.2s3.3,0.9,4.5,0.5s4.2-4.4,4.2-6.8s-0.2-4.3,0.2-9.6
		s3.6-19.1,3.6-24s1.4-11.3,2.2-15.5s0.4-8.5,1.2-11s1.9-18.1,1.9-18.1h1c0,0,3.3,20.3,3.8,23.5s1.7,9.6,1.9,10.8s1.2,16.5,1.6,19.8
		s2.3,8.2,3,11.6s0.9,10.1,1.2,12.2c0.6,2.2,1.6,4.3,3,6.1c0.9,1,3.6,0.4,4.9-0.7s-0.2-2.8-1-5s-1.9-2.4-1.9-7s0.7-20.5,0.7-27.1
		s-2.1-16.5-2.1-19.1s2.6-16.2,2.4-23.1c-0.3-6.4-1-12.8-2.1-19.1c-0.5-2.6-2.4-6.6-3.1-9.2s0.2-9.2,0.2-9.2l3.8,9.9
		c0,0,2.1,4,4.2,8.9c1.6,3.4,3.5,6.6,5.7,9.6c0,0,0.5,4.9,0.7,6.4c0.1,1,0.2,2,0.5,3c0.2,0.5,0.5,5.2,0.7,5.7s0.7,0.2,0.7-0.5
		c-0.1-1,0-2,0.3-3c0.4-0.5,0.7,1.9,0.9,3.1s0.7,2.1,1.2,0.9c0.4-1.5,0.5-3,0.5-4.5c0,0,0.7-0.4,0.9,1.2s2.3,4.9,2.8,3.8
		s-0.9-6.4-0.9-6.4s1.4,3.5,2.1,4s1.2,0,0.9-1.7s-1.9-6.1-1.9-6.1s2.8,1.2,2.8-0.2s-2.2-2.2-3.5-3.8c-1.4-1.5-2.9-2.8-4.5-4
		c0,0-4-13.6-4.9-15.8s-3.8-6.2-4-7.5S394.1,88,394.1,88s-0.5-11.5-2.3-13.6s-7.6-2.4-9.4-3.8s-3.4-3-3.4-4.2v-3.7
		c0.9-1,1.5-2.2,1.7-3.5c0.2-1.7,0.2-3.1,0.2-3.1C381.9,52.7,381.1,49,378.8,46.1z"/>
	<path class="st8" d="M376.3,55.8c0,0,3-2.9,3-4.7c0-2.7-1.7-5.2-4.3-6.1c-3.4-1.2-7.5,1.1-8.6,4.1s2.1,5.7,2.9,6.6
		c0.8,0.7,1.7,1.2,2.7,1.4l0.9,60.8h1.1l0.2-60.4L376.3,55.8z"/>
	<path class="st8" d="M373.5,125.9c-0.7,1.2-1.6,2.2-2.5,3.2c-0.9,0.7-1.2,0.4-1.4,0.9"/>
	<path class="st8" d="M373.1,129c0,0-3.4,8.6-3.2,12.2s0.2,4.3,0.2,6.8s0.2,4.5,0.2,6.4"/>
	<path class="st8" d="M370.8,136.6c0,0,1.4,2,0.4,6.6"/>
	<path class="st8" d="M372,72.8c0,0-8,3.4-9.1,6.1s2.5,2.1,3.4,2.1"/>
	<path class="st8" d="M372,74.8c0,0-11.1,7-10.5,8.4s5.2,1.6,5.2,1.6"/>
	<path class="st8" d="M372.4,78.6c0,0-10.2,7-10,8.8s4.8,0.4,4.8,0.4"/>
	<path class="st8" d="M372.2,82.1c0,0-10,8.9-9.8,9.5s2.9,0.2,2.9,0.2"/>
	<path class="st8" d="M372.2,86.1c0,0-9.6,6.6-9.3,8.2s3.4,0.7,3.4,0.7"/>
	<path class="st8" d="M372,88.9c0,0-7.5,7.2-8.2,9.1s0.4,2.2,0.4,2.2l0.5,0.7"/>
	<path class="st8" d="M372.2,92.7c0,0-7.9,7.5-7.7,9.3c0,1,0.7,1.8,1.6,2"/>
	<path class="st8" d="M372.2,95.2c0,0-7.1,9.3-7.1,11.1s0.7,2.3,0.7,2.3"/>
	<path class="st8" d="M372.2,97.5c0,0-4.8,8.2-5.2,9.7c-0.2,0.9-0.3,1.8-0.4,2.7"/>
	<line class="st8" x1="372.2" y1="101.6" x2="368.5" y2="109.1"/>
	<path class="st8" d="M372.4,105.2c0,0-3.6,5.9-4.3,6.6"/>
	<path class="st8" d="M372.4,108.8c0,0-3,4.1-4.5,5s-4.1,1.1-4.5,0.4s-0.4-2.9-0.5-3.6"/>
	<path class="st8" d="M363.5,114.1c0,0-0.5,0.9-1.4,2.7s-1.6,2.1-1.6,2.1"/>
	<line class="st8" x1="362" y1="116.8" x2="360.6" y2="116.3"/>
	<line class="st8" x1="362.8" y1="112.3" x2="361" y2="111.6"/>
	<path class="st8" d="M372.4,111.1c0,0-5.5,4.7-6.2,7.2s-4.8,8-5.4,10.5c-0.5,2.5-0.2,3.9-0.5,7.5s-1.2,5.7-1.2,7.9"/>
	<path class="st8" d="M360.6,128.2c-0.7,1.1-1.3,2.3-1.6,3.6"/>
	<path class="st8" d="M360.4,133.6c-0.8,1.2-1.4,2.5-1.8,3.9"/>
	<path class="st8" d="M372.6,113.2c0,0-3.9,3.9-4.1,4.8s3.9-2.5,3.9-2.5s-2.7,4.5-4.3,7.9s-4.8,7-4.8,10.7s1.2,7.1,1.8,10.2
		s1.6,7.5,1.4,12.5s-0.4,7.3-0.4,10.2s-0.2,7.5-0.5,8.4c-0.4,1.2-0.7,2.5-0.9,3.8"/>
	<path class="st8" d="M373.3,118.8c0,0-6.1,13.2-7,17.3s-1.8,13.4-2.1,15.4s-0.2,9.3-0.4,12.3s-0.7,18.9-0.7,20.6S362,204,362,205.6
		c-0.1,1.8-0.6,3.6-1.6,5.2c-0.7,1-1.3,2.1-1.8,3.2"/>
	<path class="st8" d="M363.8,154c-1.7,2.3-2.5,5.1-2.3,8c0.4,3.6-1.6,11.8-1.6,14.5s0.2,7.7,0.4,8.8s0.2,4.5,0.4,7.5
		s0.4,6.4,0.4,8.8c0.1,1.8-0.4,3.5-1.3,5c-0.9,2-2.3,5.2-2.3,5.2"/>
	<line class="st8" x1="364" y1="204.7" x2="362.4" y2="199.6"/>
	<path class="st8" d="M366.9,160.9c0.6,1.4,0.9,2.8,1.1,4.3"/>
	<path class="st8" d="M373.3,122.5c0,0,0.4,2.9-1.6,3.9s-3.6,0.4-6.4-2.5s-2.1-6.3,1.6-7.7"/>
	<path class="st8" d="M369.5,144c-0.6,1.5-0.9,3.1-1.1,4.6"/>
	<path class="st8" d="M372.2,63.4c0,0-1.4,1.2-1.4,2.1s-2.3,3.8-4.8,6.1s-6.1,0.9-9.1,5.7c-2.5,3.9-3.8,8.6-3.6,13.2
		c0,4.3,0,2.8-0.7,6.4s-7.1,21.5-8.4,24.5s-2,4.1-3,4.8s-3.9,3-4.5,3.2"/>
	<path class="st8" d="M371.9,67.8c0,0-3.4,3-5.7,4.6s-8.6,3.6-10,7.5s-1.6,9.5-1.8,12.5s-3,11.4-3.6,13.2s-9.6,20.6-9.6,20.6"/>
	<path class="st8" d="M371.9,69.3c0,0-4.1,2.9-7.9,5.7s-5.2,8.6-5.9,13.2s-3,13.8-3.8,17s-8.6,17.9-9.1,19.5
		c-0.6,1.5-1.1,3.1-1.4,4.6c-0.4,1.8-0.5,6.8-0.5,6.8"/>
	<path class="st8" d="M364,75c0,0-4.5,2.9-5.9,6.2s-3.2,14.5-3.9,18.8s-10,24-10.9,25.6s-3.8,7.3-4.6,9.6"/>
	<path class="st8" d="M341.5,129c-1.4,1.5-2.7,3.1-3.9,4.8"/>
	<line class="st8" x1="342.2" y1="128.6" x2="341.1" y2="137.9"/>
	<path class="st8" d="M365.6,57.3c0.9,1,2.1,1.7,3.4,2.2c1,0.2,2,0,2.9-0.5"/>
	<polyline class="st8" points="367,60.7 369.9,60.9 371.7,60 	"/>
	<path class="st8" d="M371.5,61.4c0,0,0.2,1.1-2.7,1.2"/>
	<path class="st8" d="M374,72.8c0,0,8,3.4,9.1,6.1s-2.5,2.1-3.4,2.1"/>
	<path class="st8" d="M374,74.8c0,0,11.1,7,10.5,8.4s-5.2,1.6-5.2,1.6"/>
	<path class="st8" d="M373.7,78.6c0,0,10.2,7,10,8.8s-4.8,0.4-4.8,0.4"/>
	<path class="st8" d="M373.8,82.1c0,0,10,8.9,9.8,9.5s-2.9,0.2-2.9,0.2"/>
	<path class="st8" d="M373.8,86.1c0,0,9.6,6.6,9.3,8.2s-3.4,0.7-3.4,0.7"/>
	<path class="st8" d="M374,88.9c0,0,7.5,7.2,8.2,9.1s-0.4,2.2-0.4,2.2l-0.5,0.7"/>
	<path class="st8" d="M373.8,92.7c0,0,7.9,7.5,7.7,9.3c0,1-0.7,1.8-1.6,2"/>
	<path class="st8" d="M373.8,95.2c0,0,7.1,9.3,7.1,11.1s-0.7,2.3-0.7,2.3"/>
	<path class="st8" d="M373.8,97.5c0,0,4.8,8.2,5.2,9.7c0.2,0.9,0.3,1.8,0.4,2.7"/>
	<line class="st8" x1="373.8" y1="101.6" x2="377.6" y2="109.1"/>
	<path class="st8" d="M373.7,105.2c0,0,3.6,5.9,4.3,6.6"/>
	<path class="st8" d="M373.7,108.8c0,0,3,4.1,4.5,5s4.1,1.1,4.5,0.4s0.4-2.9,0.5-3.6"/>
	<path class="st8" d="M382.6,114.1c0,0,0.5,0.9,1.4,2.7s1.6,2.1,1.6,2.1"/>
	<line class="st8" x1="384" y1="116.8" x2="385.5" y2="116.3"/>
	<line class="st8" x1="383.3" y1="112.3" x2="385.1" y2="111.6"/>
	<path class="st8" d="M373.7,111.1c0,0,5.5,4.7,6.3,7.2s4.8,8,5.4,10.5c0.5,2.5,0.2,3.9,0.5,7.5s1.2,5.7,1.2,7.9"/>
	<path class="st8" d="M385.5,128.2c0.7,1.1,1.3,2.3,1.6,3.6"/>
	<path class="st8" d="M385.6,133.6c0.8,1.2,1.4,2.5,1.8,3.9"/>
	<path class="st8" d="M373.5,113.2c0,0,3.9,3.9,4.1,4.8s-3.9-2.5-3.9-2.5s2.7,4.5,4.3,7.9s4.8,7,4.8,10.7s-1.2,7.1-1.8,10.2
		s1.3,7,1.5,12s0.4,7.3,0.4,10.2s0.2,7.5,0.5,8.4c0.4,1.2,0.7,2.5,0.9,3.8"/>
	<path class="st8" d="M372.8,118.8c0,0,6.1,13.2,7,17.3s4.7,12.9,5,14.9s0.2,9.3,0.4,12.3s0.7,18.9,0.7,20.6s1.1,19.6,1.1,21.2
		c0.1,1.8,0.6,3.6,1.6,5.2c0.7,1,1.3,2.1,1.8,3.2"/>
	<path class="st8" d="M385.2,153.4c1.7,2.3,2.5,5.1,2.3,8c-0.4,3.6,1.6,11.8,1.6,14.5s-0.2,7.7-0.4,8.8s-0.2,4.5-0.4,7.5
		s-0.4,6.5-0.4,8.8c-0.1,1.8,0.4,3.5,1.3,5c0.9,2,2.3,5.2,2.3,5.2"/>
	<line class="st8" x1="385" y1="204.2" x2="386.6" y2="199"/>
	<path class="st8" d="M382.1,160.4c-0.6,1.4-0.9,2.8-1.1,4.3"/>
	<path class="st8" d="M372.8,122.5c0,0-0.4,2.9,1.6,3.9s3.6,0.4,6.4-2.5s2.1-6.3-1.6-7.7"/>
	<path class="st8" d="M381,144.3c-0.5,1.8-0.8,3.6-1,5.4"/>
	<path class="st8" d="M373.8,63.4c0,0,1.4,1.2,1.4,2.1s2.3,3.8,4.8,6.1s6.1,0.9,9.1,5.7c2.5,3.9,3.8,8.6,3.6,13.2
		c0,4.3,0,2.8,0.7,6.4s7.1,21.5,8.4,24.5s2,4.1,3,4.8s3.9,3,4.5,3.2"/>
	<path class="st8" d="M374.2,67.8c0,0,3.4,3,5.7,4.6s8.6,3.6,10,7.5s1.6,9.5,1.8,12.5s3,11.4,3.6,13.2s9.6,20.6,9.6,20.6"/>
	<path class="st8" d="M374.2,69.3c0,0,4.1,2.9,7.9,5.7s5.2,8.6,5.9,13.2s3,13.8,3.8,17s8.6,17.9,9.1,19.5c0.6,1.5,1.1,3.1,1.4,4.6
		c0.4,1.8,0.5,6.8,0.5,6.8"/>
	<path class="st8" d="M382.1,75c0,0,4.5,2.9,5.9,6.2s3.2,14.5,3.9,18.8s10,24,10.9,25.6s3.8,7.3,4.6,9.6"/>
	<path class="st8" d="M404.6,129c1.4,1.5,2.7,3.1,3.9,4.8"/>
	<line class="st8" x1="403.9" y1="128.6" x2="404.9" y2="137.9"/>
	<path class="st8" d="M380.4,57.3c-0.9,1-2.1,1.7-3.4,2.2c-1,0.2-2,0-2.9-0.5"/>
	<polyline class="st8" points="379,60.7 376.2,60.9 374.4,60 	"/>
	<path class="st8" d="M374.6,61.4c0,0-0.2,1.1,2.7,1.2"/>
	<polyline class="st2" points="332.5,58.7 340.3,58.7 355.5,73 	"/>
	<polyline class="st2" points="409.9,68.4 405.8,68.4 394.7,83.2 	"/>
	<polyline class="st2" points="410.9,158.7 406.2,158.7 392.4,148.1 	"/>
	<polyline class="st2" points="338.5,194.2 344.9,194.2 355.1,187.8 	"/>
	<polyline class="st2" points="332.5,153.2 339.9,153.2 354.6,140.8 	"/>
	<polyline class="st2" points="412.7,101.6 408.5,101.6 404.4,109.4 	"/>
	<polyline class="st2" points="401.6,47.2 394.2,47.2 382.7,57.3 	"/>
	<polyline class="st2" points="350.5,46.7 357.8,46.7 361.5,50.4 	"/>
	<line class="st2" x1="364.8" y1="220.5" x2="382.7" y2="220.5"/>
	<line class="st2" x1="347.7" y1="224.2" x2="397.9" y2="224.2"/>
</g>
<g id="freepik--Characters--inject-225">
	<path class="st9" d="M284.4,164.9c0,0,0.4,26.4-0.9,27.2s-6.9,7.8-14,3.1s-3.1-17.1-2.9-23.5s8.4-8.6,10.2-9.1
		S284.4,164.9,284.4,164.9z"/>
	<path class="st10" d="M284.4,164.9c0,0-5.8-2.7-7.5-2.2s-10,2.7-10.2,9.1c-0.2,4.9-2.5,13.3-0.5,19.1l4.5-0.9l3.3-19.4l10.4-0.5
		C284.4,167,284.4,164.9,284.4,164.9z"/>
	<path class="st11" d="M176.9,456.2c0,0-20.5,13.6-21.2,15.8c-0.4,1.7-0.4,3.4,0,5h41.3v-12.4C197.1,464.7,183.2,456.5,176.9,456.2z
		"/>
	<path class="st11" d="M257.5,456.2c0,0,20.5,13.6,21.1,15.8c0.4,1.7,0.4,3.4,0,5h-41.3v-12.4C237.2,464.7,251.1,456.5,257.5,456.2z
		"/>
	<path class="st12" d="M179.8,232.3L176.3,333l1.6,109c0,0-3.1,5-3.1,6.6s0.6,8.2,0.6,8.2s3.5,1,7.9,2.5s13.6,6.9,13.6,6.9
		s2.8-7.6,3.8-11s-1-11.4-1-13.6s7.9-47.6,7.9-47.6l13.9-116.9l8.2,120.1l5.1,47.3c0,0-2.5,7.3-2.2,9.2s4.5,11.3,4.5,11.3l25.6-5
		v-7.9l-2.2-7.9l-1.2-11.4v-85.6l0.6-74.5L259,239L179.8,232.3z"/>
	<path class="st10" d="M179.8,232.3l-0.7,19c4.2,1.5,41.4,13.8,80.2,3.8L259,239L179.8,232.3z"/>
	<line class="st2" x1="254.5" y1="433.8" x2="253.2" y2="340"/>
	<line class="st2" x1="255.2" y1="439.1" x2="255.8" y2="445.7"/>
	<path class="st2" d="M190.5,394.8c-2,17.2-4.7,41.9-4.7,43.6c0,2.6,5.9,11.9,5.9,11.9l-5.3,1.3l1.3,4"/>
	<path class="st2" d="M192.4,378.3c0,0-0.3,2.5-0.8,6.6"/>
	<path class="st13" d="M155.6,473.2c-0.1,1.3,0,2.5,0.2,3.8h41.3v-3.8H155.6z"/>
	<path class="st13" d="M237.2,477h41.3c0.2-1.2,0.3-2.3,0.2-3.5h-41.6V477z"/>
	<path class="st12" d="M226.8,104.2c0,0-37.6,6.1-41.1,6.7c-2.2,0.3-4.3,1-6.3,2c-0.6,0.4-4.3,66.7-4.1,67.7s1.7,67.9,1.7,67.9
		s29.3,7.2,48.3,7c11.7-0.1,23.4-1.1,35-2.7l6.1-60.1L271,168l25.2-1.2c0,0-10.8-34.6-11.3-37.2s-20.9-11.8-26.6-14.5
		s-20.1-8.4-20.1-8.4L226.8,104.2z"/>
	<polyline class="st2" points="225.1,119.5 242.5,146.6 257.5,118.1 	"/>
	<line class="st2" x1="218.8" y1="109.7" x2="221.5" y2="113.9"/>
	<polygon class="st10" points="271,168 281,136.9 274.3,168 	"/>
	<path class="st9" d="M281.4,76.7c1-0.4,1.6-1.3,1.8-2.3c0.9-5.3-0.5-10.8-3.7-15.1c-5.1-6.8-16-12.7-26.6-9.2S237.6,63.9,237,69.2
		s-2,14.9-2,14.9l-11.1,21.7l19,28.9l12.9-23.1c0,0-5.9-8.6-8-16.2s4.1-12.3,11-16.8c6.8-4.5,12.5-5.1,14.9-4.1
		C276.1,75.4,278.7,76.1,281.4,76.7z"/>
	<polygon class="st10" points="240.8,97.1 250.4,120.6 256.4,110.5 	"/>
	<path class="st10" d="M258.7,78.6c6.9-4.5,12.5-5.1,14.9-4.1c2.6,0.9,5.2,1.6,7.8,2.2c1-0.4,1.6-1.3,1.8-2.3
		c0.9-5.3-0.5-10.8-3.7-15.1c-5.1-6.8-16-12.7-26.6-9.2S237.6,63.9,237,69.2c-0.4,3.4-1.1,8.5-1.5,11.8l14.2,5.2
		C251.8,83.3,255.1,80.9,258.7,78.6z"/>
	<path class="st9" d="M244,79.8c0,0,3.3,0.6,5.1-1.2s-1-3.9,2.9-5.1s7.6,0.6,8.4-2s2-6.6,3.9-7.8s11.3,4.9,14.9,7.4
		s2.4,4.9,0.8,10.6s-3.1,7.4-4.9,7.8s-2.7,1.4-2.7,3.9s0.6,6.1-0.8,7.4s-5.7,1.2-5.7,1.2c-1.7,3.1-3.5,6.1-5.5,9
		c-1.8,2.2-5.5,2.2-8.4,0.2S240.3,99.1,239.3,95s0.4-8,1.2-10.4S244,79.8,244,79.8z"/>
	<path class="st9" d="M245.2,81.3c0,0-0.2-5.9-3.7-6.7s-7.2,6.1-5.7,10.4s6.1,2.7,6.1,2.7"/>
	<path class="st2" d="M266.7,88.8l-1,2.3c0,0-4.3-1-4.7-3.1"/>
	<path class="st2" d="M270.2,87.8c0,0-3.1-4.1-7.4-4.1"/>
	<path class="st9" d="M165.2,154.9c0,0-8,26.5-9.5,33.8s0.2,14.2,3.8,18s25.7,8.4,25.7,8.4l-0.9-6.7c0,0-6.4-15.1-6.6-15.9
		s10-32.7,10-32.7L165.2,154.9z"/>
	<path class="st10" d="M163,160.4l21.5,6.8c1.7-4.1,3-7.4,3-7.4l-22.4-4.9C165.2,154.9,164.2,157.1,163,160.4z"/>
	<path class="st2" d="M162.2,192.1c0,0,5.2-4.2,14.3,1"/>
	<path class="st12" d="M183.2,111.7c0,0-2.9-2.3-6.8,3.9s-18.6,40.7-18.6,40.7l35,9.8l2-29.5"/>
	<path class="st11" d="M256.2,263.1c0,0-23.8-2-38.6,1.1c-7.9,1.5-15.6,3.6-23.2,6.1c0,0-7.8,0.6-10.6,1.7c-2.6,0.9-5.4,1.6-8.1,2
		c0,0-27.1,3.9-33.8,5.3S122,281,122,281l-7-14.8c-2.2-4.8-4.2-12.9-6.2-10.6c-2,2.2-3.3,14.8-2.8,19.6s2,11.2,1.7,13.4
		s-0.8,4.8,0,5.6s4.8,1.4,5.6,1.4H285C285,295.5,267.1,264,256.2,263.1z"/>
	<path class="st10" d="M203.9,267.5v28.1H285c0,0-17.9-31.6-28.8-32.4c0,0-23.8-2-38.6,1.1C212.1,265.4,207.5,266.5,203.9,267.5z"/>
	<path class="st11" d="M420.9,257.8c0,0-9.1-0.9-11-2.8s-5.7-7.2-6.6-6s-4.7,5.4-4.7,5.4s-6-2.8-9.5-0.6s-4.4,12.7-4.4,12.7
		c-3.1,0.9-6.4,0.8-9.5-0.3c-4.7-1.9-26.8-13.6-41.3-15.1s-31.6,4.1-35.7,4.4s-12.6,0.3-12.6,0.3V295h95.3c0,0,4.1-1.9,4.7-4.7
		c0.2-1.8,1.6-3.1,3.4-3.4c1-0.3,3.4-0.3,6.3,2.8s8.6,5,13,5.6s15.8,0,18.6-2.2s5.7-8.8,5.7-8.8s7.3-1.3,7.6-4.7s1.3-7.6,0-9.1
		c-1-1-2.4-1.6-3.8-1.6c0,0,4.1-7.3,1.9-9.8s-6.9-2.8-8.2-3.2S424.4,248,420.9,257.8z"/>
	<path class="st10" d="M440.1,279.6c0.3-3.5,1.3-7.6,0-9.1c-1-1-2.4-1.6-3.8-1.6c0,0,4.1-7.3,1.9-9.8s-6.9-2.8-8.2-3.2
		s-5.7-7.9-9.1,1.9c0,0,6,5.4,4.1,12.3s-5.4,7.9-6.6,6s-3.8-2.5-5-1s-9.8,0.6-9.5,1.6s4.1,4.7,1.6,6.9s-9.1-0.6-10.4-2.8
		c-0.7-1.2-1.3-2.5-1.9-3.8l-6.1,9.9c1.1-0.2,2.3-0.3,3.5-0.3c1-0.3,1.2-1.4,3.2,0.9c2.8,3.2,10.1,7.3,14.5,7.9s15.8,0,18.6-2.2
		s5.7-8.8,5.7-8.8S439.8,283,440.1,279.6z"/>
	<path class="st11" d="M414.9,260.3c0,0,1.6,2.5-0.3,6.6"/>
	<path class="st11" d="M410.8,260l-2.8-0.9c0,0-0.3,2.8-0.3,4.7"/>
	<path class="st14" d="M384.5,290.4c1-4.7,3.8-7.2-1.9-15.7c-2.1-3.2-4.7-6.2-7.6-8.7c-5-2-26.8-13.5-41.2-15.1s-31.6,4.1-35.7,4.4
		s-12.6,0.3-12.6,0.3V295h95.1C382.7,293.7,384.2,292.1,384.5,290.4z"/>
	<path class="st11" d="M273.4,187.7l-72.4,8.8c0,0-6.7-13.1-9.1-18.7s-1.7-11.9-3.2-11.3s-2.6,3.7-5,11.2s-1.1,13.2-0.9,16.5
		s-0.5,11.6,0.5,13.7s3.7,2,9.7,1.6s12.4-0.2,12.4-0.2s49.6,3.2,50.2,3.2c-1.1,0-3.6,37-3.8,40.6c-0.4,6.5-0.6,13.1-0.9,19.6
		c-0.2,4.9-2.4,14.4,3,17.4c2.8,1.5,7,1.5,10.1,1.8c8.6,0.7,18.5,1.6,27-0.2c0.7-0.1,1.4-0.3,2-0.6c4.9-2.6,3.1-10.7,2.2-15
		c-3-13.9-4.9-28-6.7-42c-1-8.1-2.1-16.1-3.4-24.1c-0.7-4.5-1.1-10-3.2-14.2c-1-2-1.8-3.5-2.4-4.7
		C278.5,188.9,276,187.5,273.4,187.7z"/>
	<path class="st2" d="M255.8,212.5c0,0,0.3,0.3,9.7-2.4"/>
	<path class="st10" d="M288.7,234.2c-0.2-2-0.5-4-0.8-6h-34.1c-0.9,10.6-1.7,22.9-1.8,24.9c-0.4,6.5-0.6,13.1-0.9,19.6
		c-0.2,4.9-2.4,14.4,3,17.4c2.8,1.5,7,1.5,10.1,1.8c8.6,0.7,18.5,1.6,27-0.2c0.7-0.1,1.4-0.3,2-0.6c4.9-2.6,3.1-10.7,2.2-15
		C292.4,262.3,290.5,248.2,288.7,234.2z"/>
	<path class="st11" d="M368.5,272.1c0,0-38.1,4.1-43.9,4.5s-14.8-0.7-22,1s-29.5,4.8-29.5,4.8s-15.8-1-19.4-0.7
		s-12.2,10.6-12.2,10.6h135.3c0,0,10.1-4.5,9.7-11.3S380,268.3,368.5,272.1z"/>
	<path class="st14" d="M341.1,275v17.4h35.6c0,0,10.1-4.5,9.7-11.3s-6.5-12.7-18-8.9C368.5,272.1,353.7,273.7,341.1,275z"/>
	<path class="st9" d="M274.6,191.2c0,0,6.8-8.6,8.4-7.6s1.2,3.1,0.5,4.1s-6.5,5.2-7.6,5.5S273.7,192.7,274.6,191.2z"/>
	<path class="st9" d="M281.5,201.4c0,0,5.6-7,6.9-6.3s1,2.6,0.4,3.4c-1.9,1.8-4,3.3-6.2,4.5C281.7,203.2,280.7,202.6,281.5,201.4z"
		/>
	<path class="st9" d="M278.9,198.8c0,0,6.8-8.6,8.4-7.6s1.2,3.1,0.5,4.1s-6.5,5.2-7.6,5.5S278,200.3,278.9,198.8z"/>
	<path class="st9" d="M275.3,195.9c0,0,7.8-9.8,9.6-8.7s1.3,3.6,0.6,4.7s-7.4,5.9-8.6,6.2S274.3,197.6,275.3,195.9z"/>
	<path class="st9" d="M171.7,202.1c0,0,0.2,0.1,0.4,0.4c0.9,1,3.1,3.5,3.8,5.7c0.8,2.8,1.4,4.6,2,4.8s5.4,1.2,6.9-1.6
		s-6.4-10.4-6.4-10.4S172.1,200.2,171.7,202.1z"/>
	<path class="st9" d="M181.4,199.2c-2.2-0.1-4.3-0.4-6.5-0.9c-1.6-0.5-3.2,1.8-3.2,3.8s9.5,1.8,11,0.4S183.6,199.8,181.4,199.2z"/>
	<path class="st9" d="M181.2,200.5c0,0-6.6,11.1-5.2,12.7s3.5,0.3,4.3-0.8s3.3-9.5,3.3-10.9S182.5,199,181.2,200.5z"/>
	<path class="st9" d="M193.4,205.3c0,0-5.5,9.1-4.3,10.4s2.9,0.3,3.5-0.6c1.2-2.9,2.2-5.9,2.7-9C195.4,204.9,194.5,204,193.4,205.3z
		"/>
	<path class="st9" d="M190.1,203.1c0,0-6.6,11.1-5.2,12.6s3.5,0.3,4.3-0.8s3.3-9.5,3.3-10.9S191.3,201.5,190.1,203.1z"/>
	<path class="st9" d="M186.1,199.8c0,0-7.6,12.6-5.9,14.4s4,0.4,4.9-0.9s3.8-10.8,3.8-12.4S187.6,198,186.1,199.8z"/>
	<path class="st15" d="M100.5,289.5h173.4c3.2,0,5.7,2.6,5.7,5.7v21.1c0,3.2-2.6,5.7-5.7,5.7H100.5c-3.2,0-5.7-2.6-5.7-5.7v-21.1
		C94.7,292,97.3,289.5,100.5,289.5z"/>
	<path class="st15" d="M285.3,289.5h173.4c3.2,0,5.7,2.6,5.7,5.7v21.1c0,3.2-2.6,5.7-5.7,5.7H285.3c-3.2,0-5.7-2.6-5.7-5.7v-21.1
		C279.6,292,282.2,289.5,285.3,289.5z"/>
	<rect x="106.2" y="329.1" class="st16" width="10.3" height="147.9"/>
	<rect x="106.2" y="329.1" class="st10" width="10.3" height="14.5"/>
	<rect x="437.8" y="329.1" class="st16" width="10.3" height="147.9"/>
	<rect x="437.8" y="329.1" class="st10" width="10.3" height="14.5"/>
	<rect x="274.7" y="329.1" class="st16" width="10.3" height="147.9"/>
	<rect x="274.7" y="329.1" class="st10" width="10.3" height="14.5"/>
	<rect x="92.8" y="318.2" class="st16" width="373.5" height="16.5"/>
</g>
<g id="freepik--Floor--inject-225">
	<line class="st2" x1="9" y1="477" x2="480" y2="477"/>
</g>
</svg>
