<svg id="Layer_1" data-name="Layer 1" xmlns="http://www.w3.org/2000/svg" xmlns:xlink="http://www.w3.org/1999/xlink" viewBox="0 0 432.93 387.56"><defs><style>.cls-1,.cls-16,.cls-19,.cls-22,.cls-23,.cls-9{fill:none;}.cls-2,.cls-4{fill:#458ff6;}.cls-13,.cls-14,.cls-17,.cls-3,.cls-6,.cls-8{fill:#fff;}.cls-3{opacity:0.7;}.cls-3,.cls-8{isolation:isolate;}.cls-13,.cls-14,.cls-16,.cls-4,.cls-5,.cls-9{stroke:#263238;stroke-linejoin:round;}.cls-13,.cls-14,.cls-16,.cls-19,.cls-4,.cls-5,.cls-9{stroke-linecap:round;}.cls-10,.cls-5{fill:#263238;}.cls-7{clip-path:url(#clip-path);}.cls-8{opacity:0.5;}.cls-11{clip-path:url(#clip-path-2);}.cls-12{clip-path:url(#clip-path-3);}.cls-15{clip-path:url(#clip-path-4);}.cls-16{stroke-width:2px;}.cls-17,.cls-22,.cls-25{stroke:#000;}.cls-17,.cls-18,.cls-19,.cls-22,.cls-23,.cls-25{stroke-miterlimit:10;}.cls-18{fill:#ff8a8a;}.cls-18,.cls-19{stroke:#ff726a;}.cls-20{font-size:6px;}.cls-20,.cls-24{font-family:MyriadPro-Regular, Myriad Pro;}.cls-21{letter-spacing:-0.01em;}.cls-22,.cls-25{stroke-width:0.5px;}.cls-23{stroke:#ff353a;}.cls-24{font-size:6.33px;}.cls-25{fill:#bfe3ff;}</style><clipPath id="clip-path" transform="translate(0 -6.65)"><path class="cls-1" d="M277.58,179.05a59.53,59.53,0,0,1-3.89-18.21c-.41-9.81,4.58-19,16.83-19.21s22.64,2.67,23.36,7.88-4.56,7-4.56,7,2.6,9.42,1.94,11-2.37,2.82-2,4.75,3.2,4.85,1.75,6.1-2.87,2.25-2.87,2.25-4.43,8.93-6.44,10.42-5.21.72-5.21.72l-2.38-1s-4.51,2.4-5.84,5.84-3.46,10.63-3.46,10.63-6.08-10.2-10.35-11.32a58.76,58.76,0,0,0-9.14-1.45S276.7,183.88,277.58,179.05Z"/></clipPath><clipPath id="clip-path-2" transform="translate(0 -6.65)"><path class="cls-1" d="M222,333.72s-11,11.31-14.5,12-7.37-3.7-10.85-8.39-15-31.52-17.76-35.92-6.05-9.83-6.05-9.83-11,5-11.58,7.79a15.19,15.19,0,0,1-1.72,4.61s-2.68,1.33-5.5-2.45-2-12.61,1-13.91,11.16-13.24,12.93-15,3.3-4.45,6.77-.93,8,13.2,11.27,18.3,9.23,12.29,13.87,18.65c3.71,5.08,11,11.24,11,11.24Z"/></clipPath><clipPath id="clip-path-3" transform="translate(0 -6.65)"><path class="cls-1" d="M273.72,287.91a139.24,139.24,0,0,1,19.44,12.69c8.33,6.8,10.92,10.36,10.57,13.26s-20.87,39.38-22.28,44.3-6,17.26-6,17.26,2.12,2,8,6.52,14.7,6.8,14.79,7.74-1.67,2.4-6.08,2.84a49.83,49.83,0,0,1-14.48-1.4c-3.6-.91-8.89.26-13.62.74s-5-5.23-5.3-8.39,8.31-19.72,9.92-25.93,4.87-14.83,4.9-20.88,3.94-22.7,3.94-22.7l-18.86-3.83Z"/></clipPath><clipPath id="clip-path-4" transform="translate(0 -6.65)"><path class="cls-1" d="M280.58,205.4a11.07,11.07,0,0,0-16.16-10.07,26.12,26.12,0,0,0-5.64,3.92c-9,8.07-8.18,16-6.25,19.41,0,0-2.57,9.6-2.08,14.25s-.63,13-1.11,19.76-4.82,14.61-3.38,21.24-.43,29.59-.43,29.59-2.55,5.25-3,8.21a9.67,9.67,0,0,0,1.41,5.91l-2.49-.11a5.17,5.17,0,0,0,1.77,3.76c1.8,1.48,7.28.78,7.28.78s3.26,0,3.63-1.38.2-6.78.41-9.75a57.8,57.8,0,0,0-.73-9s7.87-31,8.32-37.46a71.56,71.56,0,0,0,0-11.15s6.67-9.86,8.13-15.19a76,76,0,0,0,1.95-12.37s7.47-5.73,8.09-14.65C280.39,208.8,280.54,207,280.58,205.4Z"/></clipPath></defs><g id="freepik--background-simple--inject-7"><path class="cls-2" d="M76.57,47.06S.21,100,2.71,164.53c2.28,59,43.51,171.65,95.75,204.81s122,4.38,191.3,13.82,133.62-17.51,142.2-87-41.58-78.44-71.82-146S201.39-64.28,76.57,47.06Z" transform="translate(0 -6.65)"/><path class="cls-3" d="M76.57,47.06s-58.5,30.1-73.92,87.09S41.87,337.82,94.11,371s126.35,2.74,195.65,12.18,133.62-17.51,142.2-87-41.58-78.44-71.82-146S201.39-64.28,76.57,47.06Z" transform="translate(0 -6.65)"/></g><g id="freepik--Chair--inject-7"><polygon class="cls-4" points="175.21 386.51 172.22 386.68 166.38 306.56 172.47 306.22 175.21 386.51"/><path class="cls-5" d="M104.89,311.42s1.43-7.17,4.66-7.53,59.88,0,59.88,0,6.09-.72,6.45,6.09Z" transform="translate(0 -6.65)"/><rect class="cls-4" x="100.23" y="301.18" width="76.01" height="8.96"/><path class="cls-5" d="M95.93,221.42s3.58-1.43,4.66,4.66,11.47,70.25,11.11,73.5-6.09,5.74-6.09,5.74l-11.12-83.9Z" transform="translate(0 -6.65)"/><path class="cls-4" d="M89.83,220s10.76,68.84,10,94.65-8.07,78.53-8.07,78.53h2.51s11.46-53.06,13.61-76.37l-12-95.38S91.62,217.48,89.83,220Z" transform="translate(0 -6.65)"/></g><g id="freepik--Character--inject-7"><path class="cls-6" d="M277.58,179.05a59.53,59.53,0,0,1-3.89-18.21c-.41-9.81,4.58-19,16.83-19.21s22.64,2.67,23.36,7.88-4.56,7-4.56,7,2.6,9.42,1.94,11-2.37,2.82-2,4.75,3.2,4.85,1.75,6.1-2.87,2.25-2.87,2.25-4.43,8.93-6.44,10.42-5.21.72-5.21.72l-2.38-1s-4.51,2.4-5.84,5.84-3.46,10.63-3.46,10.63-6.08-10.2-10.35-11.32a58.76,58.76,0,0,0-9.14-1.45S276.7,183.88,277.58,179.05Z" transform="translate(0 -6.65)"/><g class="cls-7"><path class="cls-2" d="M294.15,190.8l2.38,1a8.83,8.83,0,0,0,3.28.08c-2.9-1.8-10.8-6.66-9.06-10.14,1.84-3.67,4.89-7.64,4.59-11s4.59-8,5.5-13.45c.67-4-5.45-11.72-8.84-15.64h-1.48c-12.25.24-17.24,9.4-16.83,19.21a59.53,59.53,0,0,0,3.89,18.21c-.88,4.83-12.22,15.45-12.22,15.45A58.76,58.76,0,0,1,274.5,196c4.27,1.12,10.35,11.32,10.35,11.32s2.13-7.19,3.46-10.63S294.15,190.8,294.15,190.8Z" transform="translate(0 -6.65)"/><path class="cls-8" d="M294.15,190.8l2.38,1a8.83,8.83,0,0,0,3.28.08c-2.9-1.8-10.8-6.66-9.06-10.14,1.84-3.67,4.89-7.64,4.59-11s4.59-8,5.5-13.45c.67-4-5.45-11.72-8.84-15.64h-1.48c-12.25.24-17.24,9.4-16.83,19.21a59.53,59.53,0,0,0,3.89,18.21c-.88,4.83-12.22,15.45-12.22,15.45A58.76,58.76,0,0,1,274.5,196c4.27,1.12,10.35,11.32,10.35,11.32s2.13-7.19,3.46-10.63S294.15,190.8,294.15,190.8Z" transform="translate(0 -6.65)"/></g><path class="cls-9" d="M277.58,179.05a59.53,59.53,0,0,1-3.89-18.21c-.41-9.81,4.58-19,16.83-19.21s22.64,2.67,23.36,7.88-4.56,7-4.56,7,2.6,9.42,1.94,11-2.37,2.82-2,4.75,3.2,4.85,1.75,6.1-2.87,2.25-2.87,2.25-4.43,8.93-6.44,10.42-5.21.72-5.21.72l-2.38-1s-4.51,2.4-5.84,5.84-3.46,10.63-3.46,10.63-6.08-10.2-10.35-11.32a58.76,58.76,0,0,0-9.14-1.45S276.7,183.88,277.58,179.05Z" transform="translate(0 -6.65)"/><path class="cls-5" d="M309.39,156.82c-.05-.18-.07-.29-.07-.29s5.28-1.8,4.56-7-11.12-8.11-23.36-7.88-17.24,9.4-16.83,19.21a59.44,59.44,0,0,0,3.82,18c1.56-.55,4.46-1.57,5.65-1.88a4.27,4.27,0,0,0,2.26-1.2s-5.81-6.38-5-9.86,6.09-5.56,7.58-3.55.25,8.17.25,8.17,1.06.35,1.71-1.24.23-3.24,3-4.41,5.58-2,5.92-3.12-2.88-5.36-1.94-7.2C297.73,153.06,306.45,155.83,309.39,156.82Z" transform="translate(0 -6.65)"/><path class="cls-9" d="M308.34,167.66s-2.08-3.1-4.48-1.63" transform="translate(0 -6.65)"/><path class="cls-10" d="M306.7,172c-.07,1-.55,1.72-1.08,1.69s-.89-.85-.82-1.82.54-1.72,1.07-1.69S306.76,171,306.7,172Z" transform="translate(0 -6.65)"/><line class="cls-9" x1="304.16" y1="177.67" x2="302.19" y2="176.81"/><line class="cls-9" x1="288.31" y1="189.99" x2="289.7" y2="181.07"/><path class="cls-9" d="M286.48,177.69a14.14,14.14,0,0,0,.5,4.8c.7,2,5.23,5.41,5.23,5.41" transform="translate(0 -6.65)"/><path class="cls-6" d="M222,333.72s-11,11.31-14.5,12-7.37-3.7-10.85-8.39-15-31.52-17.76-35.92-6.05-9.83-6.05-9.83-11,5-11.58,7.79a15.19,15.19,0,0,1-1.72,4.61s-2.68,1.33-5.5-2.45-2-12.61,1-13.91,11.16-13.24,12.93-15,3.3-4.45,6.77-.93,8,13.2,11.27,18.3,9.23,12.29,13.87,18.65c3.71,5.08,11,11.24,11,11.24Z" transform="translate(0 -6.65)"/><g class="cls-11"><path class="cls-2" d="M210.87,319.92s-7.26-6.16-11-11.24c-4.61-6.35-10.51-13.55-13.81-18.65-2-3.11-4.48-7.92-6.87-12-9-8.35-8.62.45-11.27,7.52-.77,2-.12,4.71,1.39,7.79,2-1,3.54-1.74,3.54-1.74s3.3,5.42,6.05,9.83c1.25,2,4.33,8.66,7.63,15.76.85,1.12,1.67,2.23,2.45,3.32,9,12.55,12.55,24.65,17,23.3s9.41-13.89,9.41-13.89l.32-4Z" transform="translate(0 -6.65)"/><path class="cls-8" d="M210.87,319.92s-7.26-6.16-11-11.24c-4.61-6.35-10.51-13.55-13.81-18.65-2-3.11-4.48-7.92-6.87-12-9-8.35-8.62.45-11.27,7.52-.77,2-.12,4.71,1.39,7.79,2-1,3.54-1.74,3.54-1.74s3.3,5.42,6.05,9.83c1.25,2,4.33,8.66,7.63,15.76.85,1.12,1.67,2.23,2.45,3.32,9,12.55,12.55,24.65,17,23.3s9.41-13.89,9.41-13.89l.32-4Z" transform="translate(0 -6.65)"/></g><path class="cls-9" d="M222,333.72s-11,11.31-14.5,12-7.37-3.7-10.85-8.39-15-31.52-17.76-35.92-6.05-9.83-6.05-9.83-11,5-11.58,7.79a15.19,15.19,0,0,1-1.72,4.61s-2.68,1.33-5.5-2.45-2-12.61,1-13.91,11.16-13.24,12.93-15,3.3-4.45,6.77-.93,8,13.2,11.27,18.3,9.23,12.29,13.87,18.65c3.71,5.08,11,11.24,11,11.24Z" transform="translate(0 -6.65)"/><path class="cls-6" d="M273.72,287.91a139.24,139.24,0,0,1,19.44,12.69c8.33,6.8,10.92,10.36,10.57,13.26s-20.87,39.38-22.28,44.3-6,17.26-6,17.26,2.12,2,8,6.52,14.7,6.8,14.79,7.74-1.67,2.4-6.08,2.84a49.83,49.83,0,0,1-14.48-1.4c-3.6-.91-8.89.26-13.62.74s-5-5.23-5.3-8.39,8.31-19.72,9.92-25.93,4.87-14.83,4.9-20.88,3.94-22.7,3.94-22.7l-18.86-3.83Z" transform="translate(0 -6.65)"/><g class="cls-12"><path class="cls-2" d="M288.89,320.51s6.28-2.69,6.28-6.72-18.38-8.07-18.38-8.07-3.81-3.64-9.42-8.46l-8.74,12.87L277.49,314s-3.92,16.64-3.94,22.7-3.3,14.66-4.9,20.88-10.24,22.78-9.92,25.93.57,8.86,5.3,8.39c1.82-.19,3.72-.47,5.57-.7,1.71-6.7,3.71-22.74,4.95-28.52,1.35-6.28,10.31-22,13.45-29.58S288.89,320.51,288.89,320.51Z" transform="translate(0 -6.65)"/><path class="cls-8" d="M288.89,320.51s6.28-2.69,6.28-6.72-18.38-8.07-18.38-8.07-3.81-3.64-9.42-8.46l-8.74,12.87L277.49,314s-3.92,16.64-3.94,22.7-3.3,14.66-4.9,20.88-10.24,22.78-9.92,25.93.57,8.86,5.3,8.39c1.82-.19,3.72-.47,5.57-.7,1.71-6.7,3.71-22.74,4.95-28.52,1.35-6.28,10.31-22,13.45-29.58S288.89,320.51,288.89,320.51Z" transform="translate(0 -6.65)"/></g><path class="cls-9" d="M273.72,287.91a139.24,139.24,0,0,1,19.44,12.69c8.33,6.8,10.92,10.36,10.57,13.26s-20.87,39.38-22.28,44.3-6,17.26-6,17.26,2.12,2,8,6.52,14.7,6.8,14.79,7.74-1.67,2.4-6.08,2.84a49.83,49.83,0,0,1-14.48-1.4c-3.6-.91-8.89.26-13.62.74s-5-5.23-5.3-8.39,8.31-19.72,9.92-25.93,4.87-14.83,4.9-20.88,3.94-22.7,3.94-22.7l-18.86-3.83Z" transform="translate(0 -6.65)"/><path class="cls-5" d="M268.22,195.33a26.48,26.48,0,0,0-5.64,3.92c-9,8.07-8.18,16-6.24,19.41,0,0-2.58,9.6-2.09,14.25s-.63,13-1.1,19.76-4.83,14.61-3.39,21.24-.43,29.59-.43,29.59-2.54,5.25-3,8.21a7,7,0,0,0,0,1.83l-4.16-.29.21-3a1.76,1.76,0,0,0-3.52-.25h0l-.68,9.74a1.76,1.76,0,1,0,3.52.24l.21-3,5.75.4.11.18-2.5-.11a5.17,5.17,0,0,0,1.77,3.76c1.8,1.48,7.28.78,7.28.78s3.27,0,3.63-1.38a13.81,13.81,0,0,0,.23-2.49l2.58.18-.21,3a1.76,1.76,0,1,0,3.52.25l.68-9.74a1.76,1.76,0,0,0-3.52-.25h0l-.21,3-2.77-.19a33.32,33.32,0,0,1,.11-3.46,57.8,57.8,0,0,0-.73-9s7.87-31,8.32-37.46a71.56,71.56,0,0,0,0-11.15s6.66-9.86,8.12-15.19A76,76,0,0,0,276,225.74s7.47-5.73,8.09-14.65c.16-2.23.3-4.06.34-5.63a11.08,11.08,0,0,0-16.23-10.13Z" transform="translate(0 -6.65)"/><path class="cls-5" d="M223.49,275.7a29,29,0,0,0-4.19,9.87c-1,5.33-1.84,8.13-1.84,8.13s-.77,6.62-3.3,10.89-8.23,17.85-8.23,17.85a27.35,27.35,0,0,0,10.92,11.89,45.06,45.06,0,0,0,16.74,5.93l14.19-34.93,2.76-.23,23.52,14.51a92.77,92.77,0,0,1,10.12-11.75,110.26,110.26,0,0,0,8.47-8.69s-15.17-15.54-24.25-21.55c-7.56-5-11.22-7.06-11.22-7.06S233.54,263.69,223.49,275.7Z" transform="translate(0 -6.65)"/><path class="cls-13" d="M234.79,273s-7.41,24.26-8.87,27c-1.22,2.3-12.12,22.36-15.66,28.87a30,30,0,0,0,6.59,5.44c.87.53,1.73,1,2.6,1.44l16-35.72,6.92-21.69Z" transform="translate(0 -6.65)"/><path class="cls-4" d="M285.87,208.16s-2.22-14.83-11-17.62-21.75,8-26.66,16.08S236.76,246,235,252.43,221.63,276,221.63,276s3.81,7.61,17.24,9.9,17.06.92,17.06.92,7.53-22.3,14.12-31.08,15-24.23,16.48-33.63S285.87,208.16,285.87,208.16Z" transform="translate(0 -6.65)"/><rect class="cls-14" x="245.59" y="305.7" width="3.8" height="20.09" transform="translate(-84.71 534.01) rotate(-86.01)"/><path class="cls-13" d="M258.34,323.16h0a1.76,1.76,0,0,0,1.88-1.61v0l.68-9.74a1.76,1.76,0,0,0-1.63-1.88h0a1.76,1.76,0,0,0-1.88,1.63l-.68,9.74A1.76,1.76,0,0,0,258.34,323.16Z" transform="translate(0 -6.65)"/><path class="cls-13" d="M236,321.6h0a1.76,1.76,0,0,0,1.88-1.63h0l.68-9.73a1.77,1.77,0,0,0-1.64-1.88h0A1.76,1.76,0,0,0,235,310l-.68,9.74A1.77,1.77,0,0,0,236,321.6Z" transform="translate(0 -6.65)"/><path class="cls-6" d="M280.58,205.4a11.07,11.07,0,0,0-16.16-10.07,26.12,26.12,0,0,0-5.64,3.92c-9,8.07-8.18,16-6.25,19.41,0,0-2.57,9.6-2.08,14.25s-.63,13-1.11,19.76-4.82,14.61-3.38,21.24-.43,29.59-.43,29.59-2.55,5.25-3,8.21a9.67,9.67,0,0,0,1.41,5.91l-2.49-.11a5.17,5.17,0,0,0,1.77,3.76c1.8,1.48,7.28.78,7.28.78s3.26,0,3.63-1.38.2-6.78.41-9.75a57.8,57.8,0,0,0-.73-9s7.87-31,8.32-37.46a71.56,71.56,0,0,0,0-11.15s6.67-9.86,8.13-15.19a76,76,0,0,0,1.95-12.37s7.47-5.73,8.09-14.65C280.39,208.8,280.54,207,280.58,205.4Z" transform="translate(0 -6.65)"/><g class="cls-15"><path class="cls-2" d="M266.92,194.33a11.69,11.69,0,0,0-2.5.91,26.12,26.12,0,0,0-5.64,3.92c-9,8.07-8.18,16-6.25,19.41,0,0-2.57,9.6-2.08,14.25s-.63,13-1.11,19.76-4.82,14.61-3.38,21.24-.43,29.59-.43,29.59-2.55,5.25-3,8.21a9.67,9.67,0,0,0,1.41,5.91l-2.49-.11a5.17,5.17,0,0,0,1.77,3.76c1.8,1.48,7.28.78,7.28.78s3.26,0,3.63-1.38a8.12,8.12,0,0,0,.17-1.39c-1.4-.86-2.87-1.61-3.78-2.16-3.36-2-.67-8.72-.34-14.76s.67-21.13,3-24.81,2.68,5,2.68-3-1-13.08-1-17.11,2-7,5.36-13.74-.67-12.08.34-14.76,8.72-8.72,10.73-18.11a19,19,0,0,0-3.07-15.41Z" transform="translate(0 -6.65)"/><path class="cls-8" d="M266.92,194.33a11.69,11.69,0,0,0-2.5.91,26.12,26.12,0,0,0-5.64,3.92c-9,8.07-8.18,16-6.25,19.41,0,0-2.57,9.6-2.08,14.25s-.63,13-1.11,19.76-4.82,14.61-3.38,21.24-.43,29.59-.43,29.59-2.55,5.25-3,8.21a9.67,9.67,0,0,0,1.41,5.91l-2.49-.11a5.17,5.17,0,0,0,1.77,3.76c1.8,1.48,7.28.78,7.28.78s3.26,0,3.63-1.38a8.12,8.12,0,0,0,.17-1.39c-1.4-.86-2.87-1.61-3.78-2.16-3.36-2-.67-8.72-.34-14.76s.67-21.13,3-24.81,2.68,5,2.68-3-1-13.08-1-17.11,2-7,5.36-13.74-.67-12.08.34-14.76,8.72-8.72,10.73-18.11a19,19,0,0,0-3.07-15.41Z" transform="translate(0 -6.65)"/></g><path class="cls-9" d="M280.58,205.4a11.07,11.07,0,0,0-16.16-10.07,26.12,26.12,0,0,0-5.64,3.92c-9,8.07-8.18,16-6.25,19.41,0,0-2.57,9.6-2.08,14.25s-.63,13-1.11,19.76-4.82,14.61-3.38,21.24-.43,29.59-.43,29.59-2.55,5.25-3,8.21a9.67,9.67,0,0,0,1.41,5.91l-2.49-.11a5.17,5.17,0,0,0,1.77,3.76c1.8,1.48,7.28.78,7.28.78s3.26,0,3.63-1.38.2-6.78.41-9.75a57.8,57.8,0,0,0-.73-9s7.87-31,8.32-37.46a71.56,71.56,0,0,0,0-11.15s6.67-9.86,8.13-15.19a76,76,0,0,0,1.95-12.37s7.47-5.73,8.09-14.65C280.39,208.8,280.54,207,280.58,205.4Z" transform="translate(0 -6.65)"/><line class="cls-9" x1="272.15" y1="219.03" x2="264.74" y2="221.81"/><line class="cls-9" x1="252.53" y1="211.96" x2="257.98" y2="200.11"/><path class="cls-4" d="M182.52,284c-2.6-4.69-5.4-9.89-7.76-12.28-3.47-3.52-5-.8-6.77.93s-9.93,13.67-12.93,15-3.85,10.13-1,13.91,5.5,2.45,5.5,2.45a15.19,15.19,0,0,0,1.72-4.61c.59-2.81,11.58-7.79,11.58-7.79a58.2,58.2,0,0,1,3.83-6.63C177.88,283.16,180.46,283.42,182.52,284Z" transform="translate(0 -6.65)"/><path class="cls-5" d="M174.76,271.73c-3.47-3.52-5-.8-6.77.93s-9.93,13.67-12.93,15-3.85,10.13-1,13.91a7,7,0,0,0,2.48,2.21c-2.31-3-2.26-6.9-1.7-10.81.61-4.3,3.69-5.23,9.53-11.38a78.22,78.22,0,0,1,10.8-9.44C175.06,272,174.88,271.86,174.76,271.73Z" transform="translate(0 -6.65)"/><path class="cls-4" d="M283.42,381.94c-5.87-4.51-8-6.52-8-6.52s-.4,2.27-5.1,3.06c-3.26.55-6.94-1.12-9.42-2.06-1.55,3-2.33,5.54-2.18,7.05.32,3.16.57,8.86,5.3,8.39s10-1.65,13.62-.74,10.07,1.85,14.48,1.4,6.18-1.89,6.08-2.84S289.29,386.44,283.42,381.94Z" transform="translate(0 -6.65)"/><path class="cls-5" d="M298.21,389.68c0-.12-.18-.28-.48-.45-7.64,3.36-14.67-.44-20.13-1.49-6.23-1.19-8.55,1.4-14.73,1.13a17.94,17.94,0,0,1-3.34-.41c.65,2,1.89,3.66,4.5,3.4,4.73-.48,10-1.65,13.62-.74s10.07,1.85,14.48,1.4S298.31,390.63,298.21,389.68Z" transform="translate(0 -6.65)"/><line class="cls-9" x1="277.49" y1="307.31" x2="285.33" y2="310.14"/></g><g id="freepik--Floor--inject-7"><line class="cls-16" x1="28.34" y1="386.56" x2="422.71" y2="386.56"/></g><circle class="cls-17" cx="258.8" cy="233.77" r="4.95"/><line class="cls-17" x1="209.27" y1="143.58" x2="263.08" y2="231.29"/><line class="cls-17" x1="258.8" y1="238.72" x2="152.31" y2="226.14"/><path class="cls-17" d="M215.45,175.67a57.88,57.88,0,0,1-57.88,57.88c-28,0-45.55-22.15-46.39-23.27-3.54-4.71-12-17.57-11.48-34.61.85-26.16,22.89-57.87,57.87-57.87A57.88,57.88,0,0,1,215.45,175.67Z" transform="translate(0 -6.65)"/><path class="cls-18" d="M213.69,182.59a56,56,0,0,0-.87-16.19c-3.69-.68-8.14,2.39-16.47,1.62-10.71-1-12-10-23.74-15.89-7.1-3.57-27.26-.62-36,1-7.48,1.4-9.22,10.74-22.36,14.46-2.24.63-4.63.62-7.6.86h-.21a18.78,18.78,0,0,0-4.35,0c-.28,2.17-.39,4-.44,5.32a62,62,0,0,0,2,15.14,8,8,0,0,0,2.71.35s3.82.15,14.59,3.19c8.2,2.31,9.86,7.13,16.93,10.87,11,5.82,31,2.63,41-2.69,12-6.4,6.53-13.94,17.35-15.54,6.23-.93,16.64.61,16.64.61S213.25,184.48,213.69,182.59Z" transform="translate(0 -6.65)"/><path class="cls-17" d="M130.86,189.79" transform="translate(0 -6.65)"/><path class="cls-19" d="M117.31,170.84a26.46,26.46,0,0,1-14.45.25l-.81-.23" transform="translate(0 -6.65)"/><path class="cls-19" d="M213,168.88a25.67,25.67,0,0,1-14.32,1.26c-.27,0-.53-.11-.79-.18" transform="translate(0 -6.65)"/><path class="cls-19" d="M133.51,170.84c-12.93,5.27-23,5.33-30.12,4.14l-1.63-.31" transform="translate(0 -6.65)"/><path class="cls-19" d="M136.5,181.41c-14.68-4.24-25.43-3.22-32.77-1.18l-1.68.5" transform="translate(0 -6.65)"/><path class="cls-19" d="M130.4,189.47c-12.08-4.71-20.54-4.93-26.19-4-.44.08-.87.15-1.29.24" transform="translate(0 -6.65)"/><path class="cls-19" d="M213.47,173a62.25,62.25,0,0,1-33.73-.07l-1.91-.58" transform="translate(0 -6.65)"/><path class="cls-19" d="M213.69,180.2c-12.56-2.63-22.08-.88-28.69,1.51-.51.18-1,.38-1.52.58" transform="translate(0 -6.65)"/><text class="cls-20" transform="translate(143.03 160.41)">Glu<tspan class="cls-21" x="8.6" y="0">c</tspan><tspan x="11.25" y="0">ógeno</tspan></text><g id="arrow"><line class="cls-22" x1="157.33" y1="164.18" x2="157.33" y2="174.76"/><line class="cls-22" x1="155.75" y1="173.21" x2="157.51" y2="174.84"/><line class="cls-22" x1="158.73" y1="173.37" x2="157.15" y2="174.84"/></g><text class="cls-20" transform="translate(147.6 182.82)">Glu<tspan class="cls-21" x="8.6" y="0">c</tspan><tspan x="11.25" y="0">osa</tspan></text><line class="cls-23" x1="153.23" y1="166.71" x2="161.1" y2="170.62"/><line class="cls-23" x1="154.13" y1="171.08" x2="160.99" y2="166.25"/><line class="cls-17" x1="119.42" y1="47.03" x2="101.62" y2="156.61"/><line class="cls-17" x1="172.97" y1="43.67" x2="209.83" y2="144.13"/><path class="cls-17" d="M173.47,55.57A27.52,27.52,0,0,1,145.94,83.1c-13.31,0-21.66-10.53-22.06-11.07a26.61,26.61,0,0,1-5.46-16.46c.4-12.44,10.89-27.52,27.52-27.52A27.52,27.52,0,0,1,173.47,55.57Z" transform="translate(0 -6.65)"/><text class="cls-24" transform="matrix(0.58, -0.78, 0.8, 0.6, 125.24, 42.89)">G</text><text class="cls-24" transform="translate(127.6 39.8) rotate(-48.17) scale(0.98 1)">l</text><text class="cls-24" transform="translate(128.5 38.73) rotate(-43.15) scale(0.98 1)">u</text><text class="cls-24" transform="matrix(0.79, -0.58, 0.59, 0.8, 130.9, 36.49)">c</text><text class="cls-24" transform="matrix(0.85, -0.48, 0.49, 0.87, 132.98, 34.92)">o</text><text class="cls-24" transform="translate(135.81 33.3) rotate(-21.35) scale(0.98 1)">g</text><text class="cls-24" transform="translate(138.91 32.09) rotate(-13.43) scale(0.98 1)">e</text><text class="cls-24" transform="translate(141.79 31.38) rotate(-5.72) scale(0.98 1)">n</text><text class="cls-24" transform="translate(145.08 31.05) rotate(1.91) scale(0.98 1)">o</text><text class="cls-24" transform="matrix(0.97, 0.12, -0.12, 0.99, 148.39, 31.2)"> </text><text class="cls-24" transform="translate(149.62 31.35) rotate(10.62) scale(0.98 1)">f</text><text class="cls-24" transform="translate(151.23 31.6) rotate(16.25) scale(0.98 1)">o</text><text class="cls-24" transform="matrix(0.9, 0.38, -0.39, 0.92, 154.38, 32.54)">s</text><text class="cls-24" transform="translate(156.56 33.47) rotate(27.49) scale(0.98 1)">f</text><text class="cls-24" transform="matrix(0.82, 0.53, -0.55, 0.84, 158.04, 34.19)">o</text><text class="cls-24" transform="translate(160.79 36.01) rotate(38.92) scale(0.98 1)">r</text><text class="cls-24" transform="matrix(0.72, 0.66, -0.68, 0.73, 162.32, 37.26)">i</text><text class="cls-24" transform="matrix(0.68, 0.7, -0.72, 0.7, 163.33, 38.19)">l</text><text class="cls-24" transform="matrix(0.62, 0.75, -0.77, 0.64, 164.33, 39.16)">a</text><text class="cls-24" transform="translate(166.16 41.4) rotate(56.31) scale(0.98 1)">s</text><text class="cls-24" transform="translate(167.47 43.33) rotate(62.02) scale(0.98 1)">a</text><path class="cls-25" d="M143,45.32a8.07,8.07,0,0,0-5.9,2.14c-3.15,2.46-4.22,5.06-6.95,15.33-1,3.82.82,7.54,1.52,8.16,1.76,1.57,8.91-8.36,14.08-6.23,3.28,1.35,2.7,6.27,5.14,6.87,5,1.23,16.18-17.39,11.88-23.65-1.87-2.73-6.91-3.44-10.12-1.6-3.7,2.12-4.12,7.12-6,7C145.68,53.33,146.72,44.88,143,45.32Z" transform="translate(0 -6.65)"/><line class="cls-23" x1="129.8" y1="64.99" x2="164.54" y2="40.48"/><line class="cls-23" x1="133.68" y1="39.61" x2="159.52" y2="64.99"/></svg>