<svg id="Layer_1" data-name="Layer 1" xmlns="http://www.w3.org/2000/svg" viewBox="0 0 512 477.76"><defs><style>.cls-1{fill:#bddbff;}.cls-2{fill:#74b3ff;}.cls-3{fill:#556dff;}.cls-4{fill:#9ec1fc;}.cls-5{fill:#57a4ff;}.cls-6{fill:#2c86ff;}.cls-7{fill:#1837ff;}.cls-8{fill:#2956e0;}.cls-9{fill:#458ff6;}</style></defs><path class="cls-1" d="M297,350.71A108.82,108.82,0,0,0,196.46,501a42.52,42.52,0,0,1,59,59,109.07,109.07,0,0,0,84-.38,38.31,38.31,0,0,1,55-51.8A108.76,108.76,0,0,0,297,350.71Z" transform="translate(-42 -213.62)"/><path class="cls-2" d="M409.62,538.36a38.31,38.31,0,1,1-38.31-38.31A38.31,38.31,0,0,1,409.62,538.36Z" transform="translate(-42 -213.62)"/><path class="cls-3" d="M262.6,536.36a42.52,42.52,0,1,1-42.52-42.52A42.52,42.52,0,0,1,262.6,536.36Z" transform="translate(-42 -213.62)"/><path class="cls-4" d="M477.14,467.28h11.52L488.44,450c-1.33-104.29-87.28-189.14-191.59-189.14A190.59,190.59,0,0,0,238.27,270l-15.55-36.75A231.42,231.42,0,0,1,528.2,450.39l.16,16.89h11.21l-31.22,44.43Z" transform="translate(-42 -213.62)"/><path class="cls-4" d="M118.86,437.72H107.34l.22,17.26c1.33,104.29,87.28,189.14,191.59,189.14A190.89,190.89,0,0,0,357.73,635l15.55,36.75A231.42,231.42,0,0,1,67.8,454.61l-.16-16.89H56.43l31.22-44.43Z" transform="translate(-42 -213.62)"/><path class="cls-5" d="M218.24,459.45A108.77,108.77,0,0,1,312,351.73,108.83,108.83,0,0,0,196.46,501a42.35,42.35,0,0,1,23.62-7.16c1.27,0,2.53.06,3.77.17A108.55,108.55,0,0,1,218.24,459.45Z" transform="translate(-42 -213.62)"/><path class="cls-5" d="M386.3,503.1a38.21,38.21,0,0,1,8.11,4.7c1.23-2.48,2.38-5,3.43-7.6A38.3,38.3,0,0,0,386.3,503.1Z" transform="translate(-42 -213.62)"/><path class="cls-6" d="M363,538.36a38.3,38.3,0,0,1,23.3-35.26,38.3,38.3,0,1,0,0,70.52A38.32,38.32,0,0,1,363,538.36Z" transform="translate(-42 -213.62)"/><path class="cls-7" d="M207.56,536.36a42.54,42.54,0,0,1,27.52-39.8,42.52,42.52,0,1,0,0,79.59A42.53,42.53,0,0,1,207.56,536.36Z" transform="translate(-42 -213.62)"/><path class="cls-8" d="M252.72,233.25a229.33,229.33,0,0,1,59.13-11.66q-7.46-.47-15-.47a230.53,230.53,0,0,0-74.14,12.13L238.27,270a186.89,186.89,0,0,1,27.21-6.57Z" transform="translate(-42 -213.62)"/><path class="cls-8" d="M329.14,644.12a192.25,192.25,0,0,0,31.37-2.55L357.73,635a190.15,190.15,0,0,1-43.49,8.54Q321.62,644.11,329.14,644.12Z" transform="translate(-42 -213.62)"/><path class="cls-8" d="M165.53,616.11a230,230,0,0,1-67.74-161.5l-.15-16.89H86.43l16.22-23.08-15-21.35L56.43,437.72H67.64l.16,16.89A231.35,231.35,0,0,0,299.15,683.88q7.53,0,15-.48A229.62,229.62,0,0,1,165.53,616.11Z" transform="translate(-42 -213.62)"/><path class="cls-9" d="M371.31,492.55a45.81,45.81,0,1,0,45.81,45.81A45.86,45.86,0,0,0,371.31,492.55Zm0,76.62a30.81,30.81,0,1,1,30.81-30.81A30.85,30.85,0,0,1,371.31,569.17Z" transform="translate(-42 -213.62)"/><path class="cls-9" d="M170.07,536.36a50,50,0,1,0,50-50A50.06,50.06,0,0,0,170.07,536.36Zm85,0a35,35,0,1,1-35-35A35.07,35.07,0,0,1,255.1,536.36Z" transform="translate(-42 -213.62)"/><path class="cls-9" d="M535.79,459.78l-.09-9.46A239,239,0,0,0,220.32,226.15l-7.65,2.59L234,279.23l6.53-2.1a184,184,0,0,1,56.3-8.75c100.22,0,182.8,81.53,184.08,181.73l.13,9.67H462.7l45.65,65,45.65-65Zm-27.44,38.88-16.78-23.88h4.68l-.31-24.85c-1.39-108.38-90.7-196.55-199.08-196.55a199.16,199.16,0,0,0-54.31,7.49l-9.72-23A223.93,223.93,0,0,1,520.71,450.45l.21,24.33h4.21Z" transform="translate(-42 -213.62)"/><path class="cls-9" d="M355.44,627.87a184,184,0,0,1-56.3,8.75c-100.22,0-182.8-81.53-184.08-181.74l-.12-9.66H133.3l-45.65-65L42,445.22H60.21l.09,9.46A239,239,0,0,0,375.68,678.85l7.65-2.58L362,625.77Zm-56.3,48.51A223.85,223.85,0,0,1,75.29,454.55l-.21-24.33H70.87l16.78-23.88,16.78,23.88H99.74l.32,24.86c1.39,108.37,90.69,196.54,199.08,196.54a199.16,199.16,0,0,0,54.31-7.49l9.71,23A223.6,223.6,0,0,1,299.14,676.38Z" transform="translate(-42 -213.62)"/><path class="cls-9" d="M409,490.67a116.24,116.24,0,1,0-225.87-7.84l14.69-3a101.25,101.25,0,1,1,196.73,6.81Z" transform="translate(-42 -213.62)"/></svg>