<?xml version="1.0" encoding="utf-8"?>
<!-- Generator: Adobe Illustrator 25.0.0, SVG Export Plug-In . SVG Version: 6.00 Build 0)  -->
<svg version="1.1" id="Layer_1" xmlns="http://www.w3.org/2000/svg" xmlns:xlink="http://www.w3.org/1999/xlink" x="0px" y="0px"
	 viewBox="0 0 500 351.1" style="enable-background:new 0 0 500 351.1;" xml:space="preserve">
<style type="text/css">
	.st0{fill:#458FF6;}
	.st1{opacity:0.8;fill:#FFFFFF;enable-background:new    ;}
	.st2{fill:#263238;}
	.st3{fill:none;stroke:#263238;stroke-linecap:round;stroke-linejoin:round;}
	.st4{fill:none;stroke:#263238;stroke-width:0.5;stroke-linecap:round;stroke-linejoin:round;}
	.st5{opacity:0.5;fill:#FFFFFF;enable-background:new    ;}
	.st6{fill:#263238;stroke:#263238;stroke-linecap:round;stroke-linejoin:round;}
	.st7{fill:#FFFFFF;stroke:#263238;stroke-linecap:round;stroke-linejoin:round;}
	.st8{fill:#FFFFFF;stroke:#263238;stroke-miterlimit:10;}
	.st9{fill:#FFFFFF;}
	.st10{clip-path:url(#SVGID_2_);}
	.st11{opacity:0.31;stroke:#263238;stroke-miterlimit:10;enable-background:new    ;}
	.st12{fill:none;stroke:#263238;stroke-miterlimit:10;}
	.st13{fill:#458FF6;stroke:#263238;stroke-miterlimit:10;}
	.st14{fill:#263238;stroke:#263238;stroke-miterlimit:10;}
	.st15{fill:#FFFFFF;stroke:#263238;stroke-width:1.0032;stroke-miterlimit:10.0319;}
	.st16{clip-path:url(#SVGID_4_);}
	.st17{opacity:0.2;stroke:#263238;stroke-miterlimit:10;enable-background:new    ;}
	.st18{clip-path:url(#SVGID_6_);}
	.st19{fill:none;stroke:#263238;stroke-width:1.5;stroke-linecap:round;stroke-linejoin:round;}
	.st20{clip-path:url(#SVGID_8_);}
	.st21{clip-path:url(#SVGID_10_);}
	.st22{opacity:0.15;enable-background:new    ;}
	.st23{clip-path:url(#SVGID_12_);}
	.st24{fill:none;stroke:#FFFFFF;stroke-linecap:round;stroke-linejoin:round;}
</style>
<g id="freepik--background-simple--inject-459">
	<path class="st0" d="M423.6,55.1c0,0-24.3-45.7-78-52.5s-91.2,26.2-130.8,43.2c-20.7,8.9-44.3,5.4-66.3,9.7
		c-70.3,13.7-96.8,99.7-67.5,148.6c25.3,42.3,69.9,64.3,137.9,69.4s115.6,11,176.4-30.5S451.9,115.2,423.6,55.1z"/>
	<path class="st1" d="M423.6,55.1c0,0-24.3-45.7-78-52.5s-91.2,26.2-130.8,43.2c-20.7,8.9-44.3,5.4-66.3,9.7
		c-70.3,13.7-96.8,99.7-67.5,148.6c25.3,42.3,69.9,64.3,137.9,69.4s115.6,11,176.4-30.5S451.9,115.2,423.6,55.1z"/>
</g>
<g id="freepik--Window--inject-459">
	<rect x="69.7" y="192.8" class="st2" width="372" height="3.4"/>
	<line class="st3" x1="355" y1="194.8" x2="355" y2="7"/>
	<line class="st3" x1="187" y1="194.8" x2="187" y2="8.2"/>
	<line class="st3" x1="79.8" y1="102.6" x2="428.2" y2="102.6"/>
	<line class="st3" x1="79.8" y1="281.6" x2="428.2" y2="281.6"/>
	<line class="st4" x1="292.7" y1="68.7" x2="290.4" y2="70.1"/>
	<line class="st4" x1="331.5" y1="44.8" x2="295.8" y2="66.8"/>
	<line class="st4" x1="336.2" y1="46.2" x2="307.6" y2="63.9"/>
	<line class="st4" x1="348.7" y1="38.5" x2="340" y2="43.9"/>
	<line class="st4" x1="72.1" y1="193" x2="67.8" y2="195.7"/>
	<line class="st4" x1="145.4" y1="147.9" x2="78" y2="189.4"/>
	<line class="st4" x1="154.3" y1="150.7" x2="100.3" y2="184"/>
	<line class="st4" x1="177.9" y1="136.2" x2="161.6" y2="146.2"/>
	<line class="st4" x1="315.8" y1="189.5" x2="311.4" y2="192.2"/>
	<line class="st4" x1="389" y1="144.4" x2="321.6" y2="185.9"/>
	<line class="st4" x1="397.9" y1="147.2" x2="343.9" y2="180.5"/>
	<line class="st4" x1="421.5" y1="132.6" x2="405.2" y2="142.7"/>
</g>
<g id="freepik--Floor--inject-459">
	<ellipse class="st0" cx="250.7" cy="314.3" rx="199.3" ry="19.8"/>
	<ellipse class="st5" cx="250.7" cy="314.3" rx="199.3" ry="19.8"/>
</g>
<g id="freepik--Character--inject-459">
	<path class="st6" d="M305.2,169.6c-4.8,4-8.2,8.8-12.3,13.9c-3.6,4.2-6.9,8.6-9.9,13.2c-4.7,7.6,5.2,71.1,5.2,71.1l-9.5,3.6
		c0,0-20.8-59.7-22.6-73.2s13.4-38.1,20-44.3s29.8-10.2,38.1-0.7c4.8,5.5,0.1,10.4-4.6,13.3C308.1,167.4,306.6,168.4,305.2,169.6z"
		/>
	<path class="st7" d="M293,281.1c0-1.9-2.8-8.7-4.8-13.3c-5.8,2.6-9.6,2.3-9.6,2.3c-1.2,0.9-2.3,2-3,3.3c-1,2-8.3,5.3-12.3,6.7
		s-6.3,3.3-4,5s19,0.7,25-0.3S293,284.1,293,281.1z"/>
	<path class="st7" d="M275.7,273.4c-1,2-8.3,5.3-12.3,6.7s-6.3,3.3-4,5s19,0.7,25-0.3s8.7-0.6,8.7-3.6c0-1.3-1.3-4.8-2.7-8.3
		l-9.3,2.3l-2.3-5C277.4,270.9,276.4,272.1,275.7,273.4z"/>
	<path class="st8" d="M203.3,178.1h11.1c3,0,5.4,2.4,5.4,5.4c0,0.1,0,0.3,0,0.4l-1.4,17.8l-15.3-3.5L203.3,178.1z"/>
	<path class="st9" d="M265.9,227.8c-14.7,1.1-29.3,3.9-43.4,8.3c0,0,10.2,15.6,0,36.1l42.8,20.5l17.9-54.3L265.9,227.8z
		 M251.4,249.4L246,265c-0.5,1.4-1.9,2.1-3.3,1.8l-13.5-3.5c0,0,3.2-5.4,1.9-16l17.5-1.5c1.5-0.1,2.9,1,3,2.5
		C251.6,248.6,251.5,249,251.4,249.4z"/>
	<g>
		<defs>
			<path id="SVGID_1_" d="M265.9,227.8c-14.7,1.1-29.3,3.9-43.4,8.3c0,0,10.2,15.6,0,36.1l42.8,20.5l17.9-54.3L265.9,227.8z
				 M251.4,249.4L246,265c-0.5,1.4-1.9,2.1-3.3,1.8l-13.5-3.5c0,0,3.2-5.4,1.9-16l17.5-1.5c1.5-0.1,2.9,1,3,2.5
				C251.6,248.6,251.5,249,251.4,249.4z"/>
		</defs>
		<clipPath id="SVGID_2_">
			<use xlink:href="#SVGID_1_"  style="overflow:visible;"/>
		</clipPath>
		<g class="st10">
			<path class="st11" d="M265.9,227.8c-14.7,1.1-29.3,3.9-43.4,8.3c0,0,10.2,15.6,0,36.1l42.8,20.5l17.9-54.3L265.9,227.8z
				 M251.4,249.4L246,265c-0.5,1.4-1.9,2.1-3.3,1.8l-13.5-3.5c0,0,3.2-5.4,1.9-16l17.5-1.5c1.5-0.1,2.9,1,3,2.5
				C251.6,248.6,251.5,249,251.4,249.4z"/>
		</g>
	</g>
	<path class="st12" d="M265.9,227.8c-14.7,1.1-29.3,3.9-43.4,8.3c0,0,10.2,15.6,0,36.1l42.8,20.5l17.9-54.3L265.9,227.8z
		 M251.4,249.4L246,265c-0.5,1.4-1.9,2.1-3.3,1.8l-13.5-3.5c0,0,3.2-5.4,1.9-16l17.5-1.5c1.5-0.1,2.9,1,3,2.5
		C251.6,248.6,251.5,249,251.4,249.4z"/>
	<path class="st13" d="M200.1,191.5c0,0,81.5,16,146.5,115h-16.5c0,0-53-79.5-127.5-103.5L200.1,191.5z"/>
	<circle class="st14" cx="194" cy="254.6" r="40.2"/>
	<circle class="st13" cx="194" cy="254.6" r="31.1"/>
	<polygon class="st8" points="306.5,204.7 300.5,204.2 307.3,171.1 313.3,171.6 	"/>
	<rect x="305.4" y="210.8" class="st8" width="6.3" height="2.9"/>
	<path class="st8" d="M293.5,198.4l15.4,1.6l-15.1,96.6c0,0,25.7,5.6,41.4,11v8.5c0,0-31.7-9.4-64.6-11.9s-77.1,4.7-77.1,4.7v-9.1
		c0,0,35.8-5.3,65.2-5L293.5,198.4z"/>
	<rect x="311.3" y="207.1" class="st6" width="3.5" height="9.2"/>
	
		<rect x="126.6" y="231" transform="matrix(7.974522e-02 -0.9968 0.9968 7.974522e-02 -53.6437 414.0016)" class="st15" width="141.6" height="10"/>
	
		<rect x="191.6" y="152.2" transform="matrix(8.176460e-02 -0.9967 0.9967 8.176460e-02 32.0366 345.1963)" class="st8" width="23.6" height="6"/>
	<path class="st9" d="M299.9,172.1c0,0,17.9,2.4,28.5,0.9s9.4-10,7.6-14.2s-8.8-2.7-16.7-1.5s-9.7,3.9-16.4,5.4s-12.1,0.9-11.5,4.8
		C292,171.5,299.9,172.1,299.9,172.1z"/>
	<g>
		<defs>
			<path id="SVGID_3_" d="M299.9,172.1c0,0,17.9,2.4,28.5,0.9s9.4-10,7.6-14.2s-8.8-2.7-16.7-1.5s-9.7,3.9-16.4,5.4
				s-12.1,0.9-11.5,4.8C292,171.5,299.9,172.1,299.9,172.1z"/>
		</defs>
		<clipPath id="SVGID_4_">
			<use xlink:href="#SVGID_3_"  style="overflow:visible;"/>
		</clipPath>
		<g class="st16">
			<path class="st17" d="M299.9,172.1c0,0,17.9,2.4,28.5,0.9s9.4-10,7.6-14.2s-8.8-2.7-16.7-1.5s-9.7,3.9-16.4,5.4
				s-12.1,0.9-11.5,4.8C292,171.5,299.9,172.1,299.9,172.1z"/>
		</g>
	</g>
	<path class="st12" d="M299.9,172.1c0,0,17.9,2.4,28.5,0.9s9.4-10,7.6-14.2s-8.8-2.7-16.7-1.5s-9.7,3.9-16.4,5.4s-12.1,0.9-11.5,4.8
		C292,171.5,299.9,172.1,299.9,172.1z"/>
	<path class="st2" d="M225.5,147.6c-10.4,0-27.2-0.9-34.3-4.5c-9.8-4.9-28.5-22-29.3-22.7c-1.6-1.5-1.7-4-0.3-5.7s4-1.7,5.7-0.3l0,0
		c0.2,0.2,18.7,17.1,27.5,21.4c7.6,3.8,33.5,3.9,37.2,3.5c2.2-0.4,4.3,1,4.7,3.2c0.4,2-0.8,3.9-2.7,4.6
		C231.2,147.6,228.3,147.7,225.5,147.6z M231.5,139.6L231.5,139.6z"/>
	<path class="st13" d="M280,257.7l-0.3,19.2c0,1.5,1.2,2.8,2.7,2.8c0,0,0,0,0,0l0,0c1.5,0,2.8-1.2,2.8-2.7c0-0.1,0-0.3,0-0.4
		l-2.7-19.4L280,257.7z"/>
	<path class="st13" d="M285.7,276.9c0-1.9-1.5-3.4-3.5-3.4s-3.4,1.5-3.4,3.5c0,1.9,1.5,3.4,3.4,3.4
		C284.1,280.3,285.7,278.8,285.7,276.9L285.7,276.9z"/>
	<rect x="272.1" y="253.6" class="st6" width="18.8" height="4.4"/>
	<polygon class="st8" points="185.9,307.2 176.1,323.5 176.1,325.3 194.2,325.3 194.2,322.8 195.8,308 	"/>
	<line class="st12" x1="176.1" y1="323.5" x2="193.5" y2="323.5"/>
	<polygon class="st13" points="346.6,306.5 349,323.5 349,325.3 327.1,325.3 327.4,322.8 330.1,306.5 	"/>
	<line class="st12" x1="349" y1="323.5" x2="328.1" y2="323.5"/>
	<path class="st9" d="M216.6,30.2c0,0-5.6,4.5-6.2,8.4c-0.6,3.9,0.6,8.8-0.8,11.5s-4.5,3.7-3.5,5s4.1,2.3,4.1,2.3s1.9,7.2,3.9,10.5
		s4.1,7,7.2,7c2-0.1,3.9-0.9,5.2-2.3c0,0,8,6.2,10.1,8s15.6-20.7,15.6-20.7l-7-3.6c0.5-1.3,0.9-2.6,1.2-3.9
		c0.6-5.1-0.5-10.2-3.1-14.6C239.1,30.8,228.8,22.6,216.6,30.2z"/>
	<g>
		<defs>
			<path id="SVGID_5_" d="M216.6,30.2c0,0-5.6,4.5-6.2,8.4c-0.6,3.9,0.6,8.8-0.8,11.5s-4.5,3.7-3.5,5s4.1,2.3,4.1,2.3
				s1.9,7.2,3.9,10.5s4.1,7,7.2,7c2-0.1,3.9-0.9,5.2-2.3c0,0,8,6.2,10.1,8s15.6-20.7,15.6-20.7l-7-3.6c0.5-1.3,0.9-2.6,1.2-3.9
				c0.6-5.1-0.5-10.2-3.1-14.6C239.1,30.8,228.8,22.6,216.6,30.2z"/>
		</defs>
		<clipPath id="SVGID_6_">
			<use xlink:href="#SVGID_5_"  style="overflow:visible;"/>
		</clipPath>
		<g class="st18">
			<path class="st0" d="M245.2,56.2c0.5-1.3,0.9-2.6,1.2-3.9c0.6-5.1-0.5-10.2-3.1-14.6C241,34,237.8,31,234,29l-10.5,7.2
				c0,0-3.1,2.3-1.8,5.1s6.9,9.5,8.8,14.4s-0.5,11.3-4.4,14.1c-2.3,1.7-5.3,3.3-6.6,4.6c0.6,0.3,1.2,0.4,1.8,0.4
				c2-0.1,3.9-0.9,5.2-2.3c0,0,6,4.6,9,7l2.5,0.5c4-3.2,14.2-20.2,14.2-20.2L245.2,56.2z"/>
			<path class="st5" d="M245.2,56.2c0.5-1.3,0.9-2.6,1.2-3.9c0.6-5.1-0.5-10.2-3.1-14.6C241,34,237.8,31,234,29l-10.5,7.2
				c0,0-3.1,2.3-1.8,5.1s6.9,9.5,8.8,14.4s-0.5,11.3-4.4,14.1c-2.3,1.7-5.3,3.3-6.6,4.6c0.6,0.3,1.2,0.4,1.8,0.4
				c2-0.1,3.9-0.9,5.2-2.3c0,0,6,4.6,9,7l2.5,0.5c4-3.2,14.2-20.2,14.2-20.2L245.2,56.2z"/>
		</g>
	</g>
	<path class="st3" d="M216.6,30.2c0,0-5.6,4.5-6.2,8.4c-0.6,3.9,0.6,8.8-0.8,11.5s-4.5,3.7-3.5,5s4.1,2.3,4.1,2.3s1.9,7.2,3.9,10.5
		s4.1,7,7.2,7c2-0.1,3.9-0.9,5.2-2.3c0,0,8,6.2,10.1,8s15.6-20.7,15.6-20.7l-7-3.6c0.5-1.3,0.9-2.6,1.2-3.9
		c0.6-5.1-0.5-10.2-3.1-14.6C239.1,30.8,228.8,22.6,216.6,30.2z"/>
	<path class="st3" d="M212.9,59.6c0,0,0.4-2,2.2-1.5"/>
	<path class="st2" d="M216.4,48.5c0,1-0.4,1.9-0.9,1.9s-0.9-0.8-0.9-1.9s0.4-1.9,0.9-1.9S216.4,47.5,216.4,48.5z"/>
	<path class="st19" d="M213.5,45.5c0,0,1.2-3.5,4.3-1.6"/>
	<path class="st3" d="M226.5,72.5c0,0,5.6-3.5,7-9.7"/>
	<path class="st9" d="M262.8,62c0,0-9.2-5.8-18.6-2s-17.4,29.1-17,38.5s8.5,24.8,18.3,27.1s11.8-0.4,11.8-0.4s0.5,5.8,4.9,9.2
		s6.1,3.8,6.1,3.8s-4.3,11.8,10,19.8s35.6,9,45.4,5.4s14.8-17.5,15.2-30.9s-8.5-20.1-12.7-24s-17.9-8.9-17.9-8.9
		s-12.8-15.3-23.9-24.6C277.9,69.5,270.7,65.1,262.8,62z"/>
	<g>
		<defs>
			<path id="SVGID_7_" d="M262.8,62c0,0-9.2-5.8-18.6-2s-17.4,29.1-17,38.5s8.5,24.8,18.3,27.1s11.8-0.4,11.8-0.4s0.5,5.8,4.9,9.2
				s6.1,3.8,6.1,3.8s-4.3,11.8,10,19.8s35.6,9,45.4,5.4s14.8-17.5,15.2-30.9s-8.5-20.1-12.7-24s-17.9-8.9-17.9-8.9
				s-12.8-15.3-23.9-24.6C277.9,69.5,270.7,65.1,262.8,62z"/>
		</defs>
		<clipPath id="SVGID_8_">
			<use xlink:href="#SVGID_7_"  style="overflow:visible;"/>
		</clipPath>
		<g class="st20">
			<path class="st0" d="M307.3,109.1c1.1-2,1.5-5.4,1.3-9.4l-0.4-0.2c0,0-12.8-15.2-23.9-24.5c-6.4-5.5-13.7-9.9-21.5-13
				c-1.9-1.1-4-2-6.2-2.5c-2.8,0.5-3,1.8,1.1,5.1c7.3,6.1,9,24.7,6.9,28.6s-8.7-3.3-13.8,0.9s-3.4,24.8,6.4,31.2
				c7.6,1.7,15.3,2.6,23.1,2.5C293.8,127.8,304,115.5,307.3,109.1z"/>
			<path class="st5" d="M307.3,109.1c1.1-2,1.5-5.4,1.3-9.4l-0.4-0.2c0,0-12.8-15.2-23.9-24.5c-6.4-5.5-13.7-9.9-21.5-13
				c-1.9-1.1-4-2-6.2-2.5c-2.8,0.5-3,1.8,1.1,5.1c7.3,6.1,9,24.7,6.9,28.6s-8.7-3.3-13.8,0.9s-3.4,24.8,6.4,31.2
				c7.6,1.7,15.3,2.6,23.1,2.5C293.8,127.8,304,115.5,307.3,109.1z"/>
		</g>
	</g>
	<path class="st3" d="M262.8,62c0,0-9.2-5.8-18.6-2s-17.4,29.1-17,38.5s8.5,24.8,18.3,27.1s11.8-0.4,11.8-0.4s0.5,5.8,4.9,9.2
		s6.1,3.8,6.1,3.8s-4.3,11.8,10,19.8s35.6,9,45.4,5.4s14.8-17.5,15.2-30.9s-8.5-20.1-12.7-24s-17.9-8.9-17.9-8.9
		s-12.8-15.3-23.9-24.6C277.9,69.5,270.7,65.1,262.8,62z"/>
	<path class="st0" d="M277.6,103.1c4.3-7.9,7.7-16.3,10.2-25c-1.2-1.1-2.3-2.1-3.5-3.1c-2.7-2.3-5.5-4.4-8.5-6.3l-2.8,3.8
		c0,0-9.2-9.4-15.4-12.1c-0.8-0.4-4.9-1.4-5.8-1.7c-2.6-0.1-5.3,0.3-7.8,1.3c-1.3,0.6-2.5,1.4-3.5,2.4c1.3-0.1,5-1.7,6.5-1.7
		c8.3,0,13.6,5.5,15.9,7.8s7.3,9,7.3,9c-2.1,6.7-6.5,12.5-12.5,16.3c-10.1,6.7-21.3,10.1-25.9,10.1c-1.3-0.1-2.7,0-4,0.1
		c2.4,9,9.3,19.7,17.4,21.6c9.8,2.4,11.8-0.4,11.8-0.4S268.4,120.1,277.6,103.1z"/>
	<g>
		<defs>
			<path id="SVGID_9_" d="M277.6,103.1c4.3-7.9,7.7-16.3,10.2-25c-1.2-1.1-2.3-2.1-3.5-3.1c-2.7-2.3-5.5-4.4-8.5-6.3l-2.8,3.8
				c0,0-9.2-9.4-15.4-12.1c-0.8-0.4-4.9-1.4-5.8-1.7c-2.6-0.1-5.3,0.3-7.8,1.3c-1.3,0.6-2.5,1.4-3.5,2.4c1.3-0.1,5-1.7,6.5-1.7
				c8.3,0,13.6,5.5,15.9,7.8s7.3,9,7.3,9c-2.1,6.7-6.5,12.5-12.5,16.3c-10.1,6.7-21.3,10.1-25.9,10.1c-1.3-0.1-2.7,0-4,0.1
				c2.4,9,9.3,19.7,17.4,21.6c9.8,2.4,11.8-0.4,11.8-0.4S268.4,120.1,277.6,103.1z"/>
		</defs>
		<clipPath id="SVGID_10_">
			<use xlink:href="#SVGID_9_"  style="overflow:visible;"/>
		</clipPath>
		<g class="st21">
			<path class="st22" d="M277.6,103.1c-9.2,17-20.4,22.2-20.4,22.2s-2,2.7-11.8,0.4c-2.6-0.7-5-2.1-6.9-3.9c4.1,0.3,12.4,0.3,12-5.6
				c-0.4-4.7-3-11-4.9-15.7c3.3-1.4,6.5-3,9.5-4.8c5.1,1.3,11.1,2.6,15.8,2.5c0,0,5.8,0.6,9.6-0.7
				C279.7,99.2,278.7,101.1,277.6,103.1z M263.1,68.6c0.5,0.5,1.2,1.3,1.9,2.1c8.2,5.4,15.8,15.9,17.8,21.6c2-4.6,3.6-9.3,5-14.2
				c-1.2-1.1-2.3-2.1-3.5-3.1c-2.7-2.3-5.5-4.4-8.5-6.3l-2.8,3.8c0,0-9.2-9.4-15.4-12.1c-0.8-0.4-4.9-1.4-5.8-1.7
				c-2.6-0.1-5.3,0.3-7.8,1.3c-1.3,0.6-2.5,1.4-3.5,2.4c1.3-0.1,5-1.7,6.5-1.7C255.5,60.7,260.8,66.2,263.1,68.6L263.1,68.6z"/>
		</g>
	</g>
	<path class="st3" d="M277.6,103.1c4.3-7.9,7.7-16.3,10.2-25c-1.2-1.1-2.3-2.1-3.5-3.1c-2.7-2.3-5.5-4.4-8.5-6.3l-2.8,3.8
		c0,0-9.2-9.4-15.4-12.1c-0.8-0.4-4.9-1.4-5.8-1.7c-2.6-0.1-5.3,0.3-7.8,1.3c-1.3,0.6-2.5,1.4-3.5,2.4c1.3-0.1,5-1.7,6.5-1.7
		c8.3,0,13.6,5.5,15.9,7.8s7.3,9,7.3,9c-2.1,6.7-6.5,12.5-12.5,16.3c-10.1,6.7-21.3,10.1-25.9,10.1c-1.3-0.1-2.7,0-4,0.1
		c2.4,9,9.3,19.7,17.4,21.6c9.8,2.4,11.8-0.4,11.8-0.4S268.4,120.1,277.6,103.1z"/>
	<path class="st9" d="M246.6,65.8c0,0-8,1-13.3,9.7s-17,44-17,44s-18.3,1-25.7-0.7s-15-5.3-18.7-8.3s-5-5.7-8.3-5.3s-7.7,2-8,4
		c-0.2,1-0.3,2-0.3,3c0,0,3.7,9.3,6.7,9.3s2.7-2.3,4.7-3.7s2,1.7,7.3,2c0,0,18.4,10.3,28.7,15.6c9.6,5,20.7,6.7,24.7,3.7
		s21.3-29,27.7-52.3"/>
	<g>
		<defs>
			<path id="SVGID_11_" d="M246.6,65.8c0,0-8,1-13.3,9.7s-17,44-17,44s-18.3,1-25.7-0.7s-15-5.3-18.7-8.3s-5-5.7-8.3-5.3s-7.7,2-8,4
				c-0.2,1-0.3,2-0.3,3c0,0,3.7,9.3,6.7,9.3s2.7-2.3,4.7-3.7s2,1.7,7.3,2c0,0,18.4,10.3,28.7,15.6c9.6,5,20.7,6.7,24.7,3.7
				s21.3-29,27.7-52.3"/>
		</defs>
		<clipPath id="SVGID_12_">
			<use xlink:href="#SVGID_11_"  style="overflow:visible;"/>
		</clipPath>
		<g class="st23">
			<path class="st0" d="M248.7,88.4c-3.6,1.5-10.5,18.4-16.2,29.8S218,137.1,206,132.6c-5.4-2-27.7-10.5-27.7-10.5l0.4,0.4
				c6.1,3.4,16.9,9.3,23.9,13c9.6,5,20.7,6.7,24.7,3.7c3.2-2.4,14.7-19.2,22.5-37.7C250.4,97.7,251.6,87.2,248.7,88.4z"/>
			<path class="st5" d="M248.7,88.4c-3.6,1.5-10.5,18.4-16.2,29.8S218,137.1,206,132.6c-5.4-2-27.7-10.5-27.7-10.5l0.4,0.4
				c6.1,3.4,16.9,9.3,23.9,13c9.6,5,20.7,6.7,24.7,3.7c3.2-2.4,14.7-19.2,22.5-37.7C250.4,97.7,251.6,87.2,248.7,88.4z"/>
		</g>
	</g>
	<path class="st3" d="M246.6,65.8c0,0-8,1-13.3,9.7s-17,44-17,44s-18.3,1-25.7-0.7s-15-5.3-18.7-8.3s-5-5.7-8.3-5.3s-7.7,2-8,4
		c-0.2,1-0.3,2-0.3,3c0,0,3.7,9.3,6.7,9.3s2.7-2.3,4.7-3.7s2,1.7,7.3,2c0,0,18.4,10.3,28.7,15.6c9.6,5,20.7,6.7,24.7,3.7
		s21.3-29,27.7-52.3"/>
	<path class="st3" d="M156,113.5c0,0,0.9-3.5,2.7-4.4c1.1-0.6,2.4-1.1,3.6-1.4"/>
	<path class="st3" d="M157.5,116.2c0.9-1.7,2.1-3.3,3.4-4.7c1.2-0.9,2.6-1.4,4.1-1.4"/>
	<path class="st3" d="M160.7,120.7c0,0-1.1-3.3,0.5-4.7s5.6-2.5,5.6-2.5"/>
	<path class="st6" d="M326.1,108.5c-4.2-3.4-16.1-8.2-17.7-8.8c-19.7,32.3-40.1,38.6-40.1,38.6s-4.3,11.8,10,19.8s35.6,9,45.4,5.4
		s16.7-16.5,17-29.9S331.4,112.8,326.1,108.5z"/>
	<path class="st6" d="M310.3,126.8c0,0-22,6.3-41.3,16.7s-39.7,36-37.3,40s50.7,56,50.7,56c-1.2,0.9-2.3,2-3,3.3
		c-1,2-8.3,5.3-12.3,6.7s-6.3,3.3-4,5c2.3,1.7,19,0.7,25-0.3s8.7-0.7,8.7-3.7s-6.6-17.7-6.6-17.7l-18-49.3c0,0,51.3-12.7,59.7-26.3
		s7.1-24.6,7.1-24.6"/>
	<line class="st24" x1="272" y1="183.5" x2="261" y2="185.8"/>
	<path class="st7" d="M296.6,250.5c0-1.9-2.8-8.7-4.8-13.3c-5.8,2.6-9.6,2.3-9.6,2.3c-1.2,0.9-2.3,2-3,3.3c-1,2-8.3,5.3-12.3,6.7
		s-6.3,3.3-4,5c2.3,1.7,19,0.7,25-0.3S296.6,253.5,296.6,250.5z"/>
	<path class="st7" d="M279.3,242.8c-1,2-8.3,5.3-12.3,6.7s-6.3,3.3-4,5c2.3,1.7,19,0.7,25-0.3s8.7-0.7,8.7-3.7
		c0-1.3-1.2-4.8-2.7-8.3l-9.3,2.3l-2.3-5C281.1,240.4,280,241.5,279.3,242.8z"/>
	<path class="st24" d="M271.1,143c0,0,29-16.5,47-21"/>
	<path class="st6" d="M213.9,33.3c0,0,7.4-2.3,8.2-0.8c0.8,1.6-3.1,7-1,7.8s6.4,3.1,6.6,5s2,4.3,3.3,3.3s0.2-4.1,3.7-4.1
		s4.3,5.4,2.5,7.8s-4.7,3.9-3.5,4.1s7.6,0.6,12.1-1.2s6.2-13,5-20.2c-1.2-7.9-7.4-14-15.3-15.2c-5.1-0.4-12.2,2.9-12.2,2.9
		s-6.4-3.1-10.3,1.9c-2.3,2.9-2.7,6.8-1,10.1L213.9,33.3z"/>
	<path class="st6" d="M248.7,40.7c-0.4-2.2,1-4.4,3.2-4.8c0.3-0.1,0.6-0.1,0.8-0.1c4.9-0.4,9.7,3.9,9.9,8.2s-1.4,10.1-7.2,9.9
		s-7-3.5-7-3.5L248.7,40.7z"/>
</g>
</svg>
